<svg id="EchoKit" xmlns="http://www.w3.org/2000/svg" xmlns:xlink="http://www.w3.org/1999/xlink" width="3024" height="1122" viewBox="0 0 3024 1122">
  <defs>
    <style>
      .cls-1 {
        fill: #fff;
      }

      .cls-1, .cls-2 {
        fill-rule: evenodd;
      }

      .cls-2 {
        fill: url(#linear-gradient);
      }
    </style>
    <linearGradient id="linear-gradient" x1="559.635" y1="809" x2="2459.365" y2="299.969" gradientUnits="userSpaceOnUse">
      <stop offset="0" stop-color="#d9455e"/>
      <stop offset="0.404" stop-color="#8f2eef"/>
      <stop offset="0.612" stop-color="#8f2eef"/>
      <stop offset="1" stop-color="#2e8fdb"/>
    </linearGradient>
  </defs>
  <path id="gear" class="cls-1" d="M1876.52,565.412l-20.23,12.106c-0.21,2.592-.48,5.167-0.78,7.733l17.46,15.816c4.17,3.778,3.25,8.373-2.05,10.262l-22.18,7.913c-0.7,2.449-1.43,4.887-2.21,7.3l14.02,18.873c3.35,4.517,1.56,8.845-4.01,9.667l-23.29,3.44c-1.19,2.315-2.43,4.6-3.7,6.862l10.07,21.283c2.41,5.086-.19,8.98-5.81,8.7l-23.57-1.183c-1.57,1.978-3.16,3.937-4.8,5.858l5.74,22.846c1.37,5.457-1.95,8.77-7.4,7.4l-22.86-5.741c-1.97,1.68-3.99,3.312-6.02,4.921l1.16,23.526c0.28,5.62-3.62,8.221-8.7,5.81l-21.26-10.081c-2.23,1.245-4.48,2.464-6.76,3.632l-3.42,23.215c-0.83,5.566-5.15,7.359-9.67,4l-18.84-13.987c-2.5.808-5.02,1.555-7.56,2.273l-7.9,22.083c-1.89,5.3-6.49,6.21-10.26,2.037l-15.76-17.417c-2.54.293-5.09,0.557-7.67,0.76l-12.04,20.116c-2.89,4.828-7.57,4.828-10.46,0l-12.04-20.117c-2.65-.21-5.27-0.484-7.89-0.788l-15.73,17.36c-3.77,4.169-8.37,3.253-10.26-2.046l-7.86-22.036c-2.51-.713-5.01-1.454-7.49-2.255l-18.73,13.916c-4.52,3.354-8.85,1.561-9.67-4l-3.41-23.1c-2.39-1.221-4.73-2.5-7.07-3.806l-21.11,9.99c-5.08,2.406-8.98-.2-8.69-5.818l1.17-23.362c-2.05-1.619-4.07-3.262-6.05-4.954l-22.65,5.687c-5.45,1.37-8.77-1.942-7.39-7.4l5.68-22.646c-1.73-2.038-3.42-4.121-5.08-6.224l-23.31,1.15c-5.62.277-8.22-3.619-5.81-8.7l9.98-21.054q-1.86-3.328-3.62-6.722l-23.05-3.406c-5.57-.822-7.36-5.15-4.01-9.667l13.87-18.668c-0.84-2.569-1.61-5.166-2.35-7.776l-21.94-7.846c-5.3-1.894-6.21-6.489-2.04-10.263l17.28-15.623c-0.31-2.612-.58-5.233-0.79-7.872l-20-11.968c-4.83-2.89-4.83-7.575,0-10.465L1425.67,543c0.21-2.707.49-5.393,0.8-8.07L1409.2,519.28c-4.17-3.777-3.26-8.372,2.04-10.262l21.9-7.807c0.72-2.563,1.47-5.114,2.29-7.637l-13.86-18.663c-3.35-4.517-1.56-8.845,4-9.667l22.99-3.4c1.24-2.418,2.53-4.8,3.86-7.163l-9.97-21.057c-2.4-5.086.2-8.98,5.82-8.7l23.28,1.168c1.63-2.063,3.29-4.107,4.99-6.109l-5.68-22.618c-1.37-5.457,1.95-8.77,7.4-7.4l22.61,5.677c2.04-1.744,4.13-3.436,6.23-5.1l-1.15-23.324c-0.27-5.62,3.62-8.221,8.71-5.81l21.05,9.987c2.3-1.286,4.61-2.545,6.96-3.748l3.41-23.054c0.82-5.566,5.15-7.359,9.66-4l18.7,13.881c2.55-.828,5.14-1.592,7.74-2.326l7.85-21.976c1.9-5.3,6.49-6.21,10.27-2.037l15.67,17.327c2.58-.3,5.17-0.567,7.78-0.773l12.01-20.065c2.89-4.828,7.57-4.828,10.46,0l12.01,20.063c2.66,0.21,5.3.485,7.93,0.791l15.73-17.36c3.78-4.169,8.37-3.253,10.26,2.046l7.86,22.034c2.5,0.711,5,1.449,7.46,2.246l18.79-13.953c4.52-3.354,8.85-1.561,9.67,4l3.42,23.164c2.35,1.206,4.67,2.468,6.97,3.756l21.22-10.043c5.09-2.406,8.98.2,8.7,5.818l-1.18,23.482c2,1.584,3.98,3.19,5.92,4.843l22.82-5.732c5.46-1.371,8.77,1.942,7.4,7.4L1805.47,420c1.68,1.977,3.32,4,4.93,6.033l23.55-1.162c5.62-.277,8.22,3.62,5.81,8.7l-10.09,21.265c1.29,2.305,2.55,4.627,3.76,6.982l23.22,3.43c5.56,0.822,7.35,5.15,4,9.667l-14.01,18.868c0.8,2.484,1.54,5,2.25,7.517l22.13,7.914c5.3,1.894,6.21,6.489,2.04,10.263l-17.48,15.81c0.28,2.51.54,5.029,0.74,7.565l20.2,12.087C1881.34,557.837,1881.34,562.522,1876.52,565.412Zm-62.97-28.044-26.46-13.481a15,15,0,0,1-6.55-20.175l13.53-26.553A174.249,174.249,0,0,0,1672.42,388.8l-20.81,20.809a15.008,15.008,0,0,1-21.22,0L1609.58,388.8a174.235,174.235,0,0,0-121.61,88.284l13.57,26.624a15,15,0,0,1-6.56,20.175l-26.54,13.522a176.973,176.973,0,0,0-1.46,22.575,173.425,173.425,0,0,0,47.67,119.646l29.47-4.668a15,15,0,0,1,17.16,12.469l4.69,29.6a174.36,174.36,0,0,0,149.44.292l4.73-29.893a15,15,0,0,1,17.16-12.469l29.98,4.748a173.442,173.442,0,0,0,47.74-119.726A175.8,175.8,0,0,0,1813.55,537.368Z"/>
  <path id="E_拷贝" data-name="E 拷贝" class="cls-2" d="M2757,533.047h-71l0.03,151.075c0,23.125,9.51,33.878,31.97,33.878a110.476,110.476,0,0,0,32.78-4.778A11.98,11.98,0,0,1,2768.04,724c0,0.3-.02.586-0.04,0.876V779.12c0.02,0.29.04,0.58,0.04,0.876a11.991,11.991,0,0,1-7.52,11.13c-19.46,10.034-42.04,15.888-71.85,15.888C2627.23,807.014,2586,782.928,2586,701V533.047h-31a12,12,0,0,1-12-12V459a12,12,0,0,1,12-12h31V369a12,12,0,0,1,12-12h76a12,12,0,0,1,12,12v78h71a12,12,0,0,1,12,12v62.047A12,12,0,0,1,2757,533.047ZM2403,447h76a12,12,0,0,1,12,12V789a12,12,0,0,1-12,12h-76a12,12,0,0,1-12-12V459A12,12,0,0,1,2403,447Zm38-43a52.022,52.022,0,1,1,52.02-52.021A52.021,52.021,0,0,1,2441,404ZM2337,782.034a11.94,11.94,0,0,1-9.63,19.013c-0.31,0-.62-0.023-0.93-0.047H2235v0a11.92,11.92,0,0,1-9.62-5h-0.01L2086,604l-54,56V789a12,12,0,0,1-12,12h-77a12,12,0,0,1-12-12V351a12,12,0,0,1,12-12h77a12,12,0,0,1,12,12V541l183-196.627c2.39-2.571,6-5.377,10-5.373h89a12,12,0,0,1,12,12,12.132,12.132,0,0,1-4,8.926v0.037L2155,535l182,247v0.034ZM1338,801h-76a12,12,0,0,1-12-12V754h-0.01l-0.03-150.484c0-47.572-22.64-72.516-60.96-72.516s-63,25.429-63,73V789a12,12,0,0,1-12,12h-76a12,12,0,0,1-12-12V331a12,12,0,0,1,12-12h76a12,12,0,0,1,12,12V497c23.12-29.732,53.27-56.684,104.18-57.017,75.98-.5,119.82,50.75,119.82,132.017V789A12,12,0,0,1,1338,801Zm-371.7-291.744L921.454,557h-0.173a13.719,13.719,0,0,1-17.125,0H904.05c-19.563-18.552-40.109-30-71.05-30-50.214,0-86,44.8-86,97,0,54.178,35.161,98,90,98,29.6,0,50.843-10.716,72.143-29h0.1a12.942,12.942,0,0,1,16.679,0H926l43,43v0.105a12.539,12.539,0,0,1-1.183,17.535C935.459,786.228,896.891,809,832.393,809,726.019,809,648,727.088,648,626v-1c0-101.089,77.643-185,186-185,61.459,0,101.282,19.52,133,51.507v0.063a12.99,12.99,0,0,1,3.031,8.475A12.821,12.821,0,0,1,966.305,509.256ZM586,711a12,12,0,0,1,12,12v66a12,12,0,0,1-12,12H262a12,12,0,0,1-12-12V351a12,12,0,0,1,12-12H586a12,12,0,0,1,12,12v66a12,12,0,0,1-12,12H351.031v94H556a12,12,0,0,1,12,12v66a12,12,0,0,1-12,12H351.031v98H586Z"/>
  <path id="EchoKit-2" data-name="EchoKit" class="cls-2" d="M1876.52,565.412l-20.23,12.106c-0.21,2.592-.48,5.167-0.78,7.733l17.46,15.816c4.17,3.778,3.25,8.373-2.05,10.262l-22.18,7.913c-0.7,2.449-1.43,4.887-2.21,7.3l14.02,18.873c3.35,4.517,1.56,8.845-4.01,9.667l-23.29,3.44c-1.19,2.315-2.43,4.6-3.7,6.862l10.07,21.283c2.41,5.086-.19,8.98-5.81,8.7l-23.57-1.183c-1.57,1.978-3.16,3.937-4.8,5.858l5.74,22.846c1.37,5.457-1.95,8.77-7.4,7.4l-22.86-5.741c-1.97,1.68-3.99,3.312-6.02,4.921l1.16,23.526c0.28,5.62-3.62,8.221-8.7,5.81l-21.26-10.081c-2.23,1.245-4.48,2.464-6.76,3.632l-3.42,23.215c-0.83,5.566-5.15,7.359-9.67,4l-18.84-13.987c-2.5.808-5.02,1.555-7.56,2.273l-7.9,22.083c-1.89,5.3-6.49,6.21-10.26,2.037l-15.76-17.417c-2.54.293-5.09,0.557-7.67,0.76l-12.04,20.116c-2.89,4.828-7.57,4.828-10.46,0l-12.04-20.117c-2.65-.21-5.27-0.484-7.89-0.788l-15.73,17.36c-3.77,4.169-8.37,3.253-10.26-2.046l-7.86-22.036c-2.51-.713-5.01-1.454-7.49-2.255l-18.73,13.916c-4.52,3.354-8.85,1.561-9.67-4l-3.41-23.1c-2.39-1.221-4.73-2.5-7.07-3.806l-21.11,9.99c-5.08,2.406-8.98-.2-8.69-5.818l1.17-23.362c-2.05-1.619-4.07-3.262-6.05-4.954l-22.65,5.687c-5.45,1.37-8.77-1.942-7.39-7.4l5.68-22.646c-1.73-2.038-3.42-4.121-5.08-6.224l-23.31,1.15c-5.62.277-8.22-3.619-5.81-8.7l9.98-21.054q-1.86-3.328-3.62-6.722l-23.05-3.406c-5.57-.822-7.36-5.15-4.01-9.667l13.87-18.668c-0.84-2.569-1.61-5.166-2.35-7.776l-21.94-7.846c-5.3-1.894-6.21-6.489-2.04-10.263l17.28-15.623c-0.31-2.612-.58-5.233-0.79-7.872l-20-11.968c-4.83-2.89-4.83-7.575,0-10.465L1425.67,543c0.21-2.707.49-5.393,0.8-8.07L1409.2,519.28c-4.17-3.777-3.26-8.372,2.04-10.262l21.9-7.807c0.72-2.563,1.47-5.114,2.29-7.637l-13.86-18.663c-3.35-4.517-1.56-8.845,4-9.667l22.99-3.4c1.24-2.418,2.53-4.8,3.86-7.163l-9.97-21.057c-2.4-5.086.2-8.98,5.82-8.7l23.28,1.168c1.63-2.063,3.29-4.107,4.99-6.109l-5.68-22.618c-1.37-5.457,1.95-8.77,7.4-7.4l22.61,5.677c2.04-1.744,4.13-3.436,6.23-5.1l-1.15-23.324c-0.27-5.62,3.62-8.221,8.71-5.81l21.05,9.987c2.3-1.286,4.61-2.545,6.96-3.748l3.41-23.054c0.82-5.566,5.15-7.359,9.66-4l18.7,13.881c2.55-.828,5.14-1.592,7.74-2.326l7.85-21.976c1.9-5.3,6.49-6.21,10.27-2.037l15.67,17.327c2.58-.3,5.17-0.567,7.78-0.773l12.01-20.065c2.89-4.828,7.57-4.828,10.46,0l12.01,20.063c2.66,0.21,5.3.485,7.93,0.791l15.73-17.36c3.78-4.169,8.37-3.253,10.26,2.046l7.86,22.034c2.5,0.711,5,1.449,7.46,2.246l18.79-13.953c4.52-3.354,8.85-1.561,9.67,4l3.42,23.164c2.35,1.206,4.67,2.468,6.97,3.756l21.22-10.043c5.09-2.406,8.98.2,8.7,5.818l-1.18,23.482c2,1.584,3.98,3.19,5.92,4.843l22.82-5.732c5.46-1.371,8.77,1.942,7.4,7.4L1805.47,420c1.68,1.977,3.32,4,4.93,6.033l23.55-1.162c5.62-.277,8.22,3.62,5.81,8.7l-10.09,21.265c1.29,2.305,2.55,4.627,3.76,6.982l23.22,3.43c5.56,0.822,7.35,5.15,4,9.667l-14.01,18.868c0.8,2.484,1.54,5,2.25,7.517l22.13,7.914c5.3,1.894,6.21,6.489,2.04,10.263l-17.48,15.81c0.28,2.51.54,5.029,0.74,7.565l20.2,12.087C1881.34,557.837,1881.34,562.522,1876.52,565.412Zm-62.97-28.044-26.46-13.481a15,15,0,0,1-6.55-20.175l13.53-26.553A174.249,174.249,0,0,0,1672.42,388.8l-20.81,20.809a15.008,15.008,0,0,1-21.22,0L1609.58,388.8a174.235,174.235,0,0,0-121.61,88.284l13.57,26.624a15,15,0,0,1-6.56,20.175l-26.54,13.522a176.973,176.973,0,0,0-1.46,22.575,173.425,173.425,0,0,0,47.67,119.646l29.47-4.668a15,15,0,0,1,17.16,12.469l4.69,29.6a174.36,174.36,0,0,0,149.44.292l4.73-29.893a15,15,0,0,1,17.16-12.469l29.98,4.748a173.442,173.442,0,0,0,47.74-119.726A175.8,175.8,0,0,0,1813.55,537.368ZM2757,533.047h-71l0.03,151.075c0,23.125,9.51,33.878,31.97,33.878a110.476,110.476,0,0,0,32.78-4.778A11.98,11.98,0,0,1,2768.04,724c0,0.3-.02.586-0.04,0.876V779.12c0.02,0.29.04,0.58,0.04,0.876a11.991,11.991,0,0,1-7.52,11.13c-19.46,10.034-42.04,15.888-71.85,15.888C2627.23,807.014,2586,782.928,2586,701V533.047h-31a12,12,0,0,1-12-12V459a12,12,0,0,1,12-12h31V369a12,12,0,0,1,12-12h76a12,12,0,0,1,12,12v78h71a12,12,0,0,1,12,12v62.047A12,12,0,0,1,2757,533.047ZM2403,447h76a12,12,0,0,1,12,12V789a12,12,0,0,1-12,12h-76a12,12,0,0,1-12-12V459A12,12,0,0,1,2403,447Zm38-43a52.022,52.022,0,1,1,52.02-52.021A52.021,52.021,0,0,1,2441,404ZM2337,782.034a11.94,11.94,0,0,1-9.63,19.013c-0.31,0-.62-0.023-0.93-0.047H2235v0a11.92,11.92,0,0,1-9.62-5h-0.01L2086,604l-54,56V789a12,12,0,0,1-12,12h-77a12,12,0,0,1-12-12V351a12,12,0,0,1,12-12h77a12,12,0,0,1,12,12V541l183-196.627c2.39-2.571,6-5.377,10-5.373h89a12,12,0,0,1,12,12,12.132,12.132,0,0,1-4,8.926v0.037L2155,535l182,247v0.034ZM1338,801h-76a12,12,0,0,1-12-12V754h-0.01l-0.03-150.484c0-47.572-22.64-72.516-60.96-72.516s-63,25.429-63,73V789a12,12,0,0,1-12,12h-76a12,12,0,0,1-12-12V331a12,12,0,0,1,12-12h76a12,12,0,0,1,12,12V497c23.12-29.732,53.27-56.684,104.18-57.017,75.98-.5,119.82,50.75,119.82,132.017V789A12,12,0,0,1,1338,801Zm-371.7-291.744L921.454,557h-0.173a13.719,13.719,0,0,1-17.125,0H904.05c-19.563-18.552-40.109-30-71.05-30-50.214,0-86,44.8-86,97,0,54.178,35.161,98,90,98,29.6,0,50.843-10.716,72.143-29h0.1a12.942,12.942,0,0,1,16.679,0H926l43,43v0.105a12.539,12.539,0,0,1-1.183,17.535C935.459,786.228,896.891,809,832.393,809,726.019,809,648,727.088,648,626v-1c0-101.089,77.643-185,186-185,61.459,0,101.282,19.52,133,51.507v0.063a12.99,12.99,0,0,1,3.031,8.475A12.821,12.821,0,0,1,966.305,509.256ZM586,711a12,12,0,0,1,12,12v66a12,12,0,0,1-12,12H262a12,12,0,0,1-12-12V351a12,12,0,0,1,12-12H586a12,12,0,0,1,12,12v66a12,12,0,0,1-12,12H351.031v94H556a12,12,0,0,1,12,12v66a12,12,0,0,1-12,12H351.031v98H586Z"/>
</svg>
