<?xml version="1.0" encoding="utf-8"?>
<!-- Generator: Adobe Illustrator 21.0.0, SVG Export Plug-In . SVG Version: 6.00 Build 0)  -->
<svg version="1.1" id="Layer_1" xmlns="http://www.w3.org/2000/svg" xmlns:xlink="http://www.w3.org/1999/xlink" width="360" height="110" viewBox="0 0 360 110">
<style type="text/css">
	.st0{fill:#A93439;}
	.st1{fill:#414042;}
	.st2{fill:#FFFFFF;}
	.st3{fill:#009D4E;}
	.st4{fill:#683817;}
</style>
<g>
	<g>
		<g>
			<path class="st0" d="M130.96,64.09h-16.18L110.7,75.3h5.64v4.49h-15.7V75.3h4.83l15.57-40.52h6.87l14.62,40.52h6.19v4.49h-20.94
				V75.3h7.07L130.96,64.09z M116.28,60.15h13.32l-6.32-18.29h-0.27L116.28,60.15z"/>
			<path class="st0" d="M149.99,66.26V39.55h-6.53v-4.49h20.19v4.49H157v24.47c0,8.63,4.35,11.96,12.64,11.96
				c3.67,0,6.12-1.22,8.09-3.2c2.31-2.31,2.78-5.3,2.78-10.4V39.55h-6.99v-4.49h18.41v4.49h-6.39v26.72c0,7.68-6.32,14.62-18,14.62
				C156.11,80.88,149.99,74.83,149.99,66.26z"/>
			<path class="st0" d="M193.35,64.5h4.08c4.96,9.11,8.09,12.17,14.41,12.17c5.3,0,8.5-2.72,8.5-7.41c0-5.51-5.78-7-11.9-8.77
				c-7-1.97-14.48-4.35-14.48-13.53c0-6.66,5.57-12.98,14.07-12.98c3.81,0,8.5,1.63,11.01,4.76l1.43-4.55h4.49v15.5h-4.08
				c-4.15-8.84-8.09-11.49-13.19-11.49c-4.35,0-7.07,2.72-7.07,6.8c0,6.05,5.98,7.41,12.24,9.04c6.87,1.7,14.14,3.81,14.14,12.85
				c0,7.82-6.39,14-15.09,14c-5.03,0-9.72-1.77-12.44-4.9l-1.63,4.69h-4.49V64.5z"/>
			<path class="st0" d="M239.44,75.31h7.88V38.87h-2.99c-5.98,0-7.27,1.97-10.61,12.1h-3.19V35.06h40.59v15.91h-3.2
				c-3.33-10.13-4.62-12.1-10.6-12.1h-2.99v36.44h7.89v4.49h-22.77L239.44,75.31L239.44,75.31z"/>
			<path class="st0" d="M276.56,75.31h7.54V39.55h-7.54v-4.49h22.09v4.49h-7.55v35.76h7.55v4.49h-22.09V75.31z"/>
			<path class="st0" d="M316.26,44.1h-0.61v31.2h7.07v4.49h-18.97V75.3h6.87V39.55h-6.87v-4.49h14.82l22.5,32.63h0.61V39.55h-7.07
				v-4.49h18.97v4.49h-6.87v41.33h-5.16L316.26,44.1z"/>
		</g>
		<g>
			<path class="st1" d="M101.33,101.8h2.29V90.95h-2.29v-1.36h6.7v1.36h-2.29v10.85h2.29v1.36h-6.7V101.8z"/>
			<path class="st1" d="M109.45,101.8h1.51v-6.72h-1.51v-1.36h3.4v2.39c1.07-1.77,2.19-2.51,3.55-2.51c1.5,0,2.52,1.09,2.52,2.95
				v5.26h1.5v1.36h-4.82v-1.36h1.38v-4.56c0-0.7-0.17-1.3-0.52-1.65c-0.27-0.27-0.64-0.41-1.11-0.41c-1.16,0-2.45,1.14-2.45,3.03
				v3.59h1.38v1.36h-4.82v-1.37H109.45z"/>
			<path class="st1" d="M122.8,102.33c-0.91-0.9-1.34-2.29-1.34-3.75c0-1.53,0.54-3.09,1.42-3.98c0.68-0.68,1.55-1.05,2.58-1.05
				c1.38,0,2.29,0.68,2.89,1.65v-4.72h-1.57V89h3.5v12.8h1.38v1.36h-3.28v-1.94c-0.7,1.42-1.84,2.12-3.09,2.12
				C124.32,103.34,123.41,102.95,122.8,102.33z M128.38,98.42c0-1.88-0.74-3.57-2.41-3.57c-1.51,0-2.37,1.32-2.37,3.57
				c0,2.33,1.09,3.63,2.37,3.63C127.21,102.05,128.38,100.73,128.38,98.42z"/>
			<path class="st1" d="M134.73,98.56c0.06,2.33,1.07,3.49,2.89,3.49c1.16,0,2.02-0.49,2.6-1.75h0.99c-0.54,2.02-2.02,3.05-4.1,3.05
				c-2.89,0-4.51-2.08-4.51-4.8c0-2.83,1.96-4.99,4.64-4.99c2.82,0,4.08,2.52,4.02,5.01L134.73,98.56L134.73,98.56z M134.76,97.59
				h4.52c-0.15-1.75-0.74-2.95-2.19-2.95C135.79,94.64,134.92,95.47,134.76,97.59z"/>
			<path class="st1" d="M142.22,104.97h1.51v-9.9h-1.51v-1.36h3.4v2.17c0.68-1.65,1.92-2.33,3.18-2.33c0.99,0,1.79,0.37,2.41,0.99
				c0.87,0.87,1.26,2.21,1.26,3.75c0,1.55-0.52,2.97-1.38,3.83c-0.64,0.64-1.5,1.03-2.39,1.03c-1.44,0-2.45-0.76-3.03-1.77v3.58
				h1.98v1.36h-5.42L142.22,104.97L142.22,104.97z M150.32,98.19c0-2.29-0.95-3.34-2.23-3.34c-1.2,0-2.47,1.5-2.47,3.67
				c0,1.88,0.82,3.34,2.41,3.34C149.5,101.86,150.32,100.58,150.32,98.19z"/>
			<path class="st1" d="M156.08,98.56c0.06,2.33,1.07,3.49,2.88,3.49c1.16,0,2.02-0.49,2.6-1.75h0.99c-0.54,2.02-2.02,3.05-4.1,3.05
				c-2.89,0-4.52-2.08-4.52-4.8c0-2.83,1.96-4.99,4.64-4.99c2.82,0,4.08,2.52,4.02,5.01L156.08,98.56L156.08,98.56z M156.1,97.59
				h4.52c-0.14-1.75-0.74-2.95-2.19-2.95C157.13,94.64,156.26,95.47,156.1,97.59z"/>
			<path class="st1" d="M163.89,101.8h1.51v-6.72h-1.51v-1.36h3.4v2.39c1.07-1.77,2.19-2.51,3.55-2.51c1.51,0,2.51,1.09,2.51,2.95
				v5.26h1.51v1.36h-4.82v-1.36h1.38v-4.56c0-0.7-0.16-1.3-0.51-1.65c-0.27-0.27-0.64-0.41-1.11-0.41c-1.15,0-2.45,1.14-2.45,3.03
				v3.59h1.38v1.36h-4.83L163.89,101.8L163.89,101.8z"/>
			<path class="st1" d="M177.23,102.33c-0.91-0.9-1.34-2.29-1.34-3.75c0-1.53,0.54-3.09,1.42-3.98c0.68-0.68,1.54-1.05,2.57-1.05
				c1.38,0,2.29,0.68,2.89,1.65v-4.72h-1.57V89h3.5v12.8h1.38v1.36h-3.28v-1.94c-0.7,1.42-1.83,2.12-3.09,2.12
				C178.75,103.34,177.85,102.95,177.23,102.33z M182.81,98.42c0-1.88-0.74-3.57-2.41-3.57c-1.5,0-2.37,1.32-2.37,3.57
				c0,2.33,1.09,3.63,2.37,3.63C181.64,102.05,182.81,100.73,182.81,98.42z"/>
			<path class="st1" d="M189.16,98.56c0.06,2.33,1.07,3.49,2.89,3.49c1.15,0,2.02-0.49,2.6-1.75h0.99c-0.54,2.02-2.02,3.05-4.1,3.05
				c-2.89,0-4.51-2.08-4.51-4.8c0-2.83,1.96-4.99,4.64-4.99c2.83,0,4.08,2.52,4.02,5.01L189.16,98.56L189.16,98.56z M189.18,97.59
				h4.52c-0.14-1.75-0.74-2.95-2.19-2.95C190.21,94.64,189.35,95.47,189.18,97.59z"/>
			<path class="st1" d="M196.98,101.8h1.5v-6.72h-1.5v-1.36h3.4v2.39c1.07-1.77,2.19-2.51,3.55-2.51c1.5,0,2.52,1.09,2.52,2.95v5.26
				h1.51v1.36h-4.83v-1.36h1.38v-4.56c0-0.7-0.17-1.3-0.52-1.65c-0.27-0.27-0.64-0.41-1.11-0.41c-1.16,0-2.45,1.14-2.45,3.03v3.59
				h1.38v1.36h-4.82L196.98,101.8L196.98,101.8z"/>
			<path class="st1" d="M211.95,91.26v2.56h3.1v1.25h-3.1v5.57c0,0.93,0.27,1.38,1.14,1.38c0.58,0,1.03-0.54,1.44-1.63l0.93,0.39
				c-0.54,1.81-1.63,2.56-2.95,2.56c-1.65,0-2.5-0.97-2.5-2.52v-5.75h-1.85v-1.25h1.85v-2.35L211.95,91.26z"/>
			<path class="st1" d="M220.14,98.52h1.24c1.51,2.76,2.45,3.69,4.37,3.69c1.61,0,2.58-0.83,2.58-2.25c0-1.67-1.75-2.12-3.61-2.66
				c-2.12-0.6-4.39-1.32-4.39-4.1c0-2.02,1.69-3.94,4.27-3.94c1.16,0,2.58,0.49,3.34,1.44l0.44-1.38h1.36v4.7h-1.24
				c-1.26-2.68-2.46-3.49-4-3.49c-1.32,0-2.14,0.83-2.14,2.06c0,1.84,1.81,2.25,3.71,2.74c2.08,0.51,4.29,1.15,4.29,3.89
				c0,2.37-1.94,4.25-4.58,4.25c-1.53,0-2.95-0.54-3.77-1.48l-0.5,1.42h-1.36L220.14,98.52L220.14,98.52z"/>
			<path class="st1" d="M231.73,98.58c0-2.93,2.1-5.03,4.89-5.03c2.06,0,3.63,1.42,3.63,2.66c0,0.97-0.47,1.67-1.34,1.67
				c-0.83,0-1.28-0.58-1.28-1.26c0-0.55,0.45-1.09,0.8-1.24c-0.29-0.45-0.91-0.83-1.9-0.83c-1.44,0-2.66,1.32-2.66,3.77
				c0,2.35,1.01,3.71,2.93,3.71c1.16,0,2.1-0.68,2.58-2.02h0.99c-0.5,2.12-2,3.32-4.08,3.32C233.4,103.34,231.73,101.3,231.73,98.58
				z"/>
			<path class="st1" d="M241.25,101.8h1.5V90.48h-1.5V89h3.44v7.07c1.07-1.78,2.15-2.47,3.51-2.47c1.51,0,2.52,1.09,2.52,2.95v5.26
				h1.51v1.36h-4.82v-1.36h1.38v-4.56c0-0.7-0.16-1.3-0.51-1.65c-0.27-0.27-0.64-0.41-1.11-0.41c-1.16,0-2.46,1.14-2.46,3.03v3.59
				h1.38v1.36h-4.82v-1.37H241.25z"/>
			<path class="st1" d="M253.15,98.48c0-2.86,1.9-4.93,4.72-4.93c2.91,0,4.7,1.98,4.7,4.84c0,2.88-1.9,4.95-4.7,4.95
				C254.92,103.34,253.15,101.37,253.15,98.48z M260.43,98.44c0-2.59-1.01-3.77-2.66-3.77c-1.63,0-2.47,1.18-2.47,3.77
				c0,2.6,1.01,3.8,2.66,3.8C259.56,102.23,260.43,101.03,260.43,98.44z"/>
			<path class="st1" d="M263.94,98.48c0-2.86,1.9-4.93,4.72-4.93c2.91,0,4.7,1.98,4.7,4.84c0,2.88-1.9,4.95-4.7,4.95
				C265.71,103.34,263.94,101.37,263.94,98.48z M271.21,98.44c0-2.59-1.01-3.77-2.66-3.77c-1.63,0-2.47,1.18-2.47,3.77
				c0,2.6,1.01,3.8,2.66,3.8C270.35,102.23,271.21,101.03,271.21,98.44z"/>
			<path class="st1" d="M274.37,101.8h1.71V90.48h-1.71V89h3.65v12.8h1.71v1.36h-5.36V101.8z"/>
			<path class="st1" d="M284.29,101.8h2.29V90.95h-2.29v-1.36h5.81c5.07,0,7.67,2.68,7.67,6.58c0,3.75-2.29,6.99-7.49,6.99h-6
				L284.29,101.8L284.29,101.8z M290.31,101.8c3.46,0,4.99-1.51,4.99-5.63c0-3.61-1.55-5.22-5.2-5.22h-1.4v10.85H290.31z"/>
			<path class="st1" d="M299.26,101.8h1.71v-6.72h-1.71v-1.36h3.65v8.08h1.71v1.36h-5.36V101.8z M300.47,90.4
				c0-0.82,0.54-1.4,1.34-1.4c0.81,0,1.34,0.53,1.34,1.36s-0.53,1.38-1.34,1.38C301.01,91.74,300.47,91.22,300.47,90.4z"/>
			<path class="st1" d="M305.75,99.78h1.26c0.51,1.5,1.69,2.56,3.01,2.56c1.11,0,1.59-0.56,1.59-1.32c0-0.82-0.64-1.21-2.5-1.73
				c-2.27-0.64-3.2-1.42-3.2-2.93c0-1.52,1.32-2.8,3.26-2.8c0.97,0,1.84,0.37,2.29,1.09l0.21-1.09h1.22v3.24h-1.24
				c-0.64-1.38-1.24-2.23-2.51-2.23c-0.72,0-1.46,0.41-1.46,1.2c0,0.83,0.72,1.26,2.41,1.71c2.18,0.6,3.22,1.3,3.22,2.91
				c0,1.42-1.26,2.97-3.38,2.97c-1.17,0-2.14-0.49-2.74-1.24l-0.23,1.24h-1.2v-3.58H305.75z"/>
			<path class="st1" d="M317.73,91.26v2.56h3.09v1.25h-3.09v5.57c0,0.93,0.27,1.38,1.13,1.38c0.58,0,1.03-0.54,1.44-1.63l0.93,0.39
				c-0.54,1.81-1.63,2.56-2.95,2.56c-1.65,0-2.5-0.97-2.5-2.52v-5.75h-1.86v-1.25h1.86v-2.35L317.73,91.26z"/>
			<path class="st1" d="M321.88,101.8h1.5v-6.72h-1.5v-1.36h3.4v2.19c0.48-1.59,1.71-2.31,2.78-2.31c1.05,0,1.65,0.72,1.65,1.61
				c0,0.72-0.54,1.34-1.24,1.34c-0.72,0-1.3-0.43-1.3-1.22c0-0.1,0.02-0.23,0.04-0.35c-0.93-0.04-1.57,1.01-1.9,2.25v4.58h1.79v1.36
				h-5.23L321.88,101.8L321.88,101.8z"/>
			<path class="st1" d="M330.56,101.8h1.71v-6.72h-1.71v-1.36h3.65v8.08h1.71v1.36h-5.36V101.8z M331.78,90.4
				c0-0.82,0.54-1.4,1.34-1.4s1.34,0.53,1.34,1.36s-0.54,1.38-1.34,1.38C332.31,91.74,331.78,91.22,331.78,90.4z"/>
			<path class="st1" d="M336.87,98.58c0-2.93,2.1-5.03,4.88-5.03c2.07,0,3.63,1.42,3.63,2.66c0,0.97-0.48,1.67-1.34,1.67
				c-0.83,0-1.28-0.58-1.28-1.26c0-0.55,0.46-1.09,0.81-1.24c-0.29-0.45-0.91-0.83-1.9-0.83c-1.44,0-2.66,1.32-2.66,3.77
				c0,2.35,1.01,3.71,2.93,3.71c1.16,0,2.11-0.68,2.58-2.02h0.99c-0.49,2.12-2,3.32-4.08,3.32
				C338.54,103.34,336.87,101.3,336.87,98.58z"/>
			<path class="st1" d="M349.84,91.26v2.56h3.09v1.25h-3.09v5.57c0,0.93,0.27,1.38,1.13,1.38c0.58,0,1.03-0.54,1.45-1.63l0.93,0.39
				c-0.54,1.81-1.63,2.56-2.95,2.56c-1.65,0-2.49-0.97-2.49-2.52v-5.75h-1.86v-1.25h1.86v-2.35L349.84,91.26z"/>
		</g>
		<path class="st0" d="M95.24,94.41"/>
		<path class="st0" d="M95.63,92.61"/>
	</g>
	<g>
		<path class="st2" d="M68.85,102.55c-0.21-8.24,0-24.56-0.05-25.07h-1.82c-0.03-2.66-0.06-8.67-0.06-8.67s0.12-7.94-2.74-14.35
			c-2.86-6.41-8.1-7.62-8.1-7.62c0.07,0-0.37-1.03,0.42-1.03c-0.22-0.05-1.28,0.03-1.28-0.02c0-1.56-0.02-5.34-0.02-5.34v-1.37
			c0.02-0.05,0.04-0.1,0.07-0.16h-6.13c0.04,0.08,0.07,0.15,0.11,0.23v1.37c0,0-0.03,3.77-0.03,5.34c0,0.06-1.07-0.03-1.28,0.02
			c0.79,0,0.34,1.03,0.42,1.03c0,0-4.89,0.97-8.23,7.55c-3.35,6.59-2.8,20.38-2.85,23.05l-1.68,0.02
			c-0.06,0.51,0.13,16.77-0.1,25.02h3.56v-7.13c0,0,0.37-2.09,2.6-2.09s2.78,2.09,2.78,2.09v7.13h4.12v-9.29h7.55v9.29h3.76v-7.13
			c0,0,0.36-2.09,2.6-2.09c2.23,0,2.78,2.09,2.78,2.09v7.13H68.85z M39.82,72.11c0,0,0.21-1.34,1.49-1.34
			c1.28,0,1.59,1.34,1.59,1.34v4.71h-3.08V72.11z M43.46,88.97h-4.44v-5.94c0,0,0.31-1.67,2.15-1.67s2.29,1.67,2.29,1.67
			S43.46,88.97,43.46,88.97z M42.97,61.14c-0.05,0.28-0.1,0.64-0.15,0.97h-1.68c0.07-0.32,0.13-0.7,0.2-1.09
			c0.2-1.15,0.44-1.87,0.44-1.87h1.71C43.5,59.15,43.09,60.42,42.97,61.14z M57.82,59.22c0,0,0.18,0.63,0.33,1.77
			c0.05,0.4,0.09,0.79,0.12,1.12h-1.89c-0.08-0.52-0.19-1.12-0.28-1.46c-0.19-0.72-0.25-1.43-0.25-1.43H57.82z M51.26,59.22h1.94
			l-0.05,2.89h-1.91L51.26,59.22z M50.47,72.08c0,0,0.42-1.36,1.69-1.36c1.28,0,1.78,1.36,1.78,1.36v4.73h-3.47
			C50.47,76.81,50.47,72.08,50.47,72.08z M46.27,61.06c0.15-1.14,0.33-1.77,0.33-1.77h1.98c0,0-0.07,0.71-0.26,1.43
			c-0.09,0.34-0.18,0.9-0.26,1.4h-1.89C46.19,61.8,46.22,61.44,46.27,61.06z M45.15,72.08c0,0,0.21-1.34,1.49-1.34
			c1.28,0,1.59,1.34,1.59,1.34v4.73h-3.08V72.08z M50.77,88.97h-4.44v-6c0,0,0.3-1.67,2.14-1.67s2.29,1.67,2.29,1.67L50.77,88.97
			L50.77,88.97z M58.08,88.97h-4.44v-6c0,0,0.3-1.67,2.14-1.67s2.29,1.67,2.29,1.67L58.08,88.97L58.08,88.97z M59.27,76.81h-3.08
			v-4.73c0,0,0.21-1.34,1.49-1.34c1.27,0,1.59,1.34,1.59,1.34S59.27,76.81,59.27,76.81z M64.59,72.08v4.73h-3.08v-4.73
			c0,0,0.21-1.34,1.49-1.34C64.28,70.74,64.59,72.08,64.59,72.08z M62.65,59.24c0,0,0.24,0.71,0.44,1.87
			c0.06,0.37,0.13,0.71,0.18,1.01H61.6c-0.04-0.3-0.08-0.63-0.13-0.89c-0.13-0.73-0.53-1.98-0.53-1.98h1.71V59.24z M60.96,88.97v-6
			c0,0,0.3-1.67,2.14-1.67c1.84,0,2.29,1.67,2.29,1.67v6H60.96z"/>
		<path class="st0" d="M21.8,26.1"/>
		<g>
			<path class="st3" d="M71.01,13.18c0.01-0.34,0.01-0.68,0.01-1.02c-0.03-1.36-0.17-2.72-0.35-4.07c-0.15-1.13-0.26-2.32-0.59-3.42
				c-0.02-0.07-0.17-0.63-0.29-0.61c-2.87,0.27-6.4,1.74-8.9,3.06c-6.07,3.21-9.2,9.97-8.62,16.65c0.16,1.77,0.44,3.54,0.89,5.27
				c0.22,0.82,0.89,4.51,0.9,4.51c5.18-1.27,11.38-5.92,14.25-10.69c1.46-2.43,2.32-5.32,2.6-8.2
				C70.96,14.17,70.99,13.67,71.01,13.18z"/>
		</g>
		<g>
			<path class="st0" d="M48.18,76.81v-4.73c0,0-0.31-1.34-1.59-1.34s-1.49,1.34-1.49,1.34v4.73H48.18z"/>
			<path class="st0" d="M59.22,76.81v-4.73c0,0-0.31-1.34-1.59-1.34s-1.49,1.34-1.49,1.34v4.73H59.22z"/>
			<path class="st0" d="M64.55,76.81v-4.73c0,0-0.31-1.34-1.59-1.34c-1.28,0-1.49,1.34-1.49,1.34v4.73H64.55z"/>
			<path class="st0" d="M53.9,76.81v-4.73c0,0-0.5-1.36-1.77-1.36c-1.28,0-1.7,1.36-1.7,1.36v4.73H53.9z"/>
			<path class="st0" d="M42.86,76.81V72.1c0,0-0.31-1.34-1.59-1.34s-1.49,1.34-1.49,1.34v4.71H42.86z"/>
		</g>
		<g>
			<g>
				<path class="st0" d="M43.41,88.97v-5.94c0,0-0.45-1.67-2.29-1.67s-2.14,1.67-2.14,1.67v5.94H43.41z"/>
			</g>
			<g>
				<path class="st0" d="M50.73,88.97v-6c0,0-0.45-1.67-2.29-1.67s-2.14,1.67-2.14,1.67v6H50.73z"/>
			</g>
			<g>
				<path class="st0" d="M58.04,88.97v-6c0,0-0.45-1.67-2.29-1.67s-2.14,1.67-2.14,1.67v6H58.04z"/>
			</g>
			<g>
				<path class="st0" d="M65.35,88.97v-6c0,0-0.45-1.67-2.29-1.67c-1.84,0-2.14,1.67-2.14,1.67v6H65.35z"/>
			</g>
		</g>
		<g>
			<path class="st0" d="M44.37,103.05v-7.64c0,0-0.55-2.09-2.78-2.09s-2.6,2.09-2.6,2.09v7.64H44.37z"/>
		</g>
		<g>
			<path class="st0" d="M65.17,103.05v-7.63c0,0-0.55-2.09-2.78-2.09c-2.23,0-2.6,2.09-2.6,2.09v7.63H65.17z"/>
		</g>
		<g>
			<polygon class="st0" points="53.1,61.9 53.15,59 51.21,59 51.19,61.9 			"/>
			<path class="st0" d="M56.35,61.9h1.88c-0.03-0.33-0.07-0.72-0.12-1.12C57.96,59.63,57.78,59,57.78,59h-1.97
				c0,0,0.07,0.71,0.25,1.43C56.16,60.78,56.26,61.37,56.35,61.9z"/>
			<path class="st0" d="M48.01,61.9c0.08-0.5,0.17-1.06,0.26-1.4c0.19-0.73,0.26-1.43,0.26-1.43h-1.97c0,0-0.18,0.63-0.33,1.77
				c-0.05,0.38-0.09,0.74-0.11,1.06C46.12,61.9,48.01,61.9,48.01,61.9z"/>
			<path class="st0" d="M42.78,61.9c0.05-0.34,0.1-0.7,0.15-0.98c0.13-0.72,0.53-1.99,0.53-1.99h-1.71c0,0-0.24,0.71-0.44,1.87
				c-0.07,0.39-0.14,0.77-0.2,1.1H42.78z"/>
			<path class="st0" d="M61.55,61.9h1.68c-0.06-0.3-0.12-0.64-0.18-1.01c-0.2-1.15-0.44-1.87-0.44-1.87H60.9c0,0,0.4,1.26,0.53,1.98
				C61.47,61.27,61.52,61.59,61.55,61.9z"/>
		</g>
		<path class="st0" d="M55.15,40.44c0,0,0.02,3.77,0.02,5.34c0,0.05,1.06-0.03,1.28,0.03c-0.79,0-0.35,1.03-0.42,1.03
			c0,0,5.24,1.22,8.1,7.62c2.86,6.41,2.74,14.36,2.74,14.36s0.02,6,0.05,8.67h1.82c0.06,0.52-0.16,16.83,0.06,25.07
			c8.86-6.3,17.06-13.4,22.37-23.4c4.71-8.88,7.31-21.69,4.38-31.66c-4.72-16.12-32.04-27.58-40.4-8.41V40.44z"/>
		<path class="st0" d="M49.19,40.51c0,0-0.03,3.77-0.03,5.34c0,0.06-1.06-0.03-1.28,0.02c0.79,0,0.34,1.03,0.42,1.03
			c0,0-4.89,0.97-8.23,7.55c-3.35,6.58-2.8,20.38-2.84,23.05l-1.68,0.02c-0.06,0.51,0.13,16.83-0.1,25.06
			c-8.84-6.31-17.02-13.43-22.3-23.45c-4.69-8.89-7.26-21.71-4.32-31.67c4.75-16.11,32.07-27.51,40.39-8.33L49.19,40.51z"/>
		<path class="st0" d="M55.89,46.83"/>
		<rect x="33.79" y="64.19" class="st0" width="36.76" height="1.5"/>
		<rect x="33.79" y="66.51" class="st0" width="36.76" height="1.5"/>
		<rect x="50.48" y="38.92" class="st0" width="1.08" height="6.95"/>
		<rect x="52.77" y="38.92" class="st0" width="1.08" height="6.95"/>
		<rect x="48.93" y="93.26" class="st0" width="6.67" height="9.73"/>
		<path class="st4" d="M52.64,35.73c0,0-0.62-22.68-21.45-30.97c-1.17-0.47-8.29,1.53-7.14,2.07c23.02,6.5,26.48,24.69,27.63,28.9
			H52.64z"/>
	</g>
</g>
</svg>

