<svg width="865" height="443" viewBox="0 0 865 443" fill="none" xmlns="http://www.w3.org/2000/svg">
<path d="M746.223 315.083C746.223 306.175 748.426 299.424 752.833 294.829C757.24 290.235 763.898 287.938 772.806 287.938C776.931 287.938 780.729 288.453 784.198 289.485C787.668 290.422 790.621 291.876 793.059 293.845L787.152 306.222C782.557 303.784 778.572 302.565 775.197 302.565C771.54 302.565 768.633 303.503 766.476 305.378C764.414 307.253 763.382 310.395 763.382 314.802V320.146H780.823V334.352H763.382V369.796H776.041V384.001H734.408V369.796H746.223V334.352H734.408V320.146H746.223V315.083Z" fill="black"/>
<path d="M644.982 384V369.794H656.937V337.867L643.435 333.225L648.076 318.879L667.908 325.63C671.658 323.099 675.409 321.083 679.16 319.582C682.91 318.082 687.692 317.332 693.506 317.332C699.695 317.332 704.57 318.551 708.134 320.989C711.697 323.427 714.228 326.709 715.729 330.834C717.323 334.96 718.12 339.508 718.12 344.477V369.794H729.794V384H694.631V369.794H700.398V346.587C700.398 342.649 699.601 339.414 698.007 336.882C696.413 334.351 693.412 333.085 689.005 333.085C686.192 333.085 683.473 333.601 680.847 334.632C678.316 335.57 676.253 336.648 674.659 337.867V369.794H680.285V384H644.982Z" fill="black"/>
<path d="M606.746 317.332C614.06 317.332 620.249 318.739 625.312 321.552C630.375 324.271 634.22 328.256 636.845 333.507C639.471 338.664 640.783 344.899 640.783 352.213C640.783 363.09 637.83 371.576 631.923 377.671C626.015 383.766 617.623 386.813 606.746 386.813C599.62 386.813 593.525 385.454 588.462 382.734C583.492 380.015 579.695 376.077 577.069 370.92C574.537 365.669 573.271 359.433 573.271 352.213C573.271 344.899 574.537 338.664 577.069 333.507C579.695 328.256 583.492 324.271 588.462 321.552C593.525 318.739 599.62 317.332 606.746 317.332ZM606.887 331.819C601.542 331.819 597.51 333.554 594.791 337.023C592.072 340.492 590.712 345.556 590.712 352.213C590.712 358.871 592.072 363.934 594.791 367.403C597.51 370.873 601.542 372.607 606.887 372.607C612.325 372.607 616.404 370.873 619.123 367.403C621.936 363.934 623.343 358.871 623.343 352.213C623.343 345.556 621.936 340.492 619.123 337.023C616.404 333.554 612.325 331.819 606.887 331.819Z" fill="black"/>
<path d="M549.73 315.503C549.73 315.409 549.027 315.222 547.62 314.94C546.214 314.565 544.479 314.19 542.416 313.815C540.353 313.44 538.29 313.253 536.227 313.253C528.351 313.253 522.303 315.737 518.084 320.707C513.864 325.677 511.754 332.897 511.754 342.367C511.754 351.931 513.911 359.245 518.224 364.309C522.537 369.372 528.539 371.904 536.227 371.904C538.572 371.904 540.775 371.622 542.838 371.06C544.901 370.403 546.542 369.794 547.761 369.231C549.073 368.669 549.73 368.387 549.73 368.387L552.824 355.729L568.014 359.245L563.514 380.483C563.514 380.483 562.341 381.046 559.997 382.171C557.747 383.203 554.559 384.281 550.433 385.406C546.307 386.531 541.572 387.094 536.227 387.094C527.695 387.094 520.146 385.547 513.583 382.452C507.113 379.264 502.049 374.389 498.393 367.825C494.736 361.167 492.907 352.682 492.907 342.367C492.907 332.991 494.689 325.02 498.252 318.457C501.815 311.893 506.832 306.877 513.301 303.407C519.865 299.844 527.46 298.062 536.087 298.062C541.9 298.062 546.87 298.672 550.996 299.891C555.215 301.11 558.403 302.376 560.56 303.688C562.81 304.907 563.935 305.517 563.935 305.517L568.155 326.614L552.824 329.99L549.73 315.503Z" fill="black"/>
<path d="M842.091 261.609C835.339 265.078 828.588 266.813 821.837 266.813C812.742 266.813 805.85 265.125 801.161 261.75C796.473 258.28 794.129 253.264 794.129 246.7C794.129 233.292 803.037 226.587 820.852 226.587H835.621C835.621 221.149 834.449 217.164 832.104 214.632C829.854 212.007 827.041 210.694 823.665 210.694C821.603 210.694 819.68 210.834 817.899 211.116C816.211 211.397 814.523 211.819 812.835 212.382L811.57 218.992L796.801 217.164L799.474 201.411C803.318 200.098 807.256 199.114 811.288 198.457C815.414 197.707 819.774 197.332 824.369 197.332C833.745 197.332 840.918 199.817 845.888 204.786C850.952 209.662 853.483 216.882 853.483 226.447V249.373L864.876 253.029L859.953 267.657L842.091 261.609ZM821.274 237.699C818.368 237.699 816.117 238.496 814.523 240.09C813.023 241.59 812.273 243.7 812.273 246.419C812.273 251.389 815.648 253.873 822.4 253.873C827.088 253.873 831.495 252.654 835.621 250.216V237.699H821.274Z" fill="black"/>
<path d="M706.11 264V249.794H718.065V217.867L704.562 213.225L709.204 198.879L729.036 205.63C732.786 203.099 736.537 201.083 740.288 199.582C744.038 198.082 748.82 197.332 754.634 197.332C760.822 197.332 765.698 198.551 769.262 200.989C772.825 203.427 775.356 206.709 776.857 210.834C778.451 214.96 779.248 219.508 779.248 224.477V249.794H790.922V264H755.759V249.794H761.526V226.587C761.526 222.649 760.729 219.414 759.135 216.882C757.541 214.351 754.54 213.085 750.133 213.085C747.32 213.085 744.601 213.601 741.975 214.632C739.444 215.57 737.381 216.648 735.787 217.867V249.794H741.413V264H706.11Z" fill="black"/>
<path d="M660.489 200.146H690.026V249.796H701.7V264.001H660.489V249.796H672.163V214.352H660.489V200.146ZM679.618 169.484C682.618 169.484 685.056 170.422 686.931 172.297C688.807 174.173 689.744 176.611 689.744 179.611C689.744 182.612 688.807 185.05 686.931 186.925C685.056 188.707 682.618 189.597 679.618 189.597C676.617 189.597 674.179 188.707 672.304 186.925C670.522 185.05 669.632 182.612 669.632 179.611C669.632 176.611 670.522 174.173 672.304 172.297C674.179 170.422 676.617 169.484 679.618 169.484Z" fill="black"/>
<path d="M571.55 264.001V249.796H583.224V187.347L569.862 182.846L574.504 168.5L601.087 177.502V202.397C606.994 199.021 613.98 197.333 622.043 197.333C629.263 197.333 634.843 199.631 638.781 204.225C642.813 208.82 644.829 215.336 644.829 223.775V249.796H656.643V264.001H621.34V249.796H626.966V226.026C626.966 221.338 626.029 217.915 624.153 215.758C622.372 213.508 619.512 212.383 615.574 212.383C613.792 212.383 611.542 212.711 608.822 213.367C606.197 213.93 603.665 214.727 601.227 215.758V249.796H606.853V264.001H571.55Z" fill="black"/>
<path d="M549.73 195.503C549.73 195.409 549.027 195.222 547.62 194.94C546.214 194.565 544.479 194.19 542.416 193.815C540.353 193.44 538.29 193.253 536.227 193.253C528.351 193.253 522.303 195.738 518.084 200.707C513.864 205.677 511.754 212.897 511.754 222.367C511.754 231.931 513.911 239.245 518.224 244.309C522.537 249.372 528.539 251.904 536.227 251.904C538.572 251.904 540.775 251.622 542.838 251.06C544.901 250.403 546.542 249.794 547.761 249.231C549.073 248.669 549.73 248.387 549.73 248.387L552.824 235.729L568.014 239.245L563.514 260.483C563.514 260.483 562.341 261.046 559.997 262.171C557.747 263.203 554.559 264.281 550.433 265.406C546.307 266.531 541.572 267.094 536.227 267.094C527.695 267.094 520.146 265.547 513.583 262.452C507.113 259.264 502.049 254.389 498.393 247.825C494.736 241.167 492.907 232.682 492.907 222.367C492.907 212.991 494.689 205.02 498.252 198.457C501.815 191.893 506.832 186.877 513.301 183.407C519.865 179.844 527.46 178.062 536.087 178.062C541.9 178.062 546.87 178.672 550.996 179.891C555.215 181.11 558.403 182.376 560.56 183.688C562.81 184.907 563.935 185.517 563.935 185.517L568.155 206.614L552.824 209.99L549.73 195.503Z" fill="black"/>
<path d="M751.524 146.812C746.554 146.812 742.288 145.874 738.725 143.999C735.162 142.03 732.442 139.123 730.567 135.278C728.692 131.34 727.754 126.417 727.754 120.51V94.3493H716.08V80.1436H727.754V68.751L744.913 63.2656V80.1436H761.791V94.3493H744.913V116.572C744.913 121.635 745.663 125.527 747.164 128.246C748.758 130.871 751.102 132.184 754.196 132.184C756.728 132.184 759.775 131.246 763.338 129.371L766.714 142.592C764.464 143.717 762.026 144.702 759.4 145.546C756.775 146.39 754.149 146.812 751.524 146.812Z" fill="black"/>
<path d="M695.165 91.819C693.665 91.3501 692.024 90.9751 690.242 90.6938C688.554 90.4125 686.914 90.2718 685.32 90.2718C682.131 90.2718 679.318 90.8344 676.881 91.9596C674.443 92.991 673.224 94.7257 673.224 97.1637C673.224 99.039 673.786 100.586 674.911 101.805C676.13 103.024 678.897 103.962 683.21 104.618L692.633 106.025C699.76 107.056 705.011 109.119 708.386 112.213C711.762 115.308 713.45 119.621 713.45 125.153C713.45 130.216 712.09 134.389 709.371 137.671C706.651 140.859 703.135 143.203 698.822 144.703C694.509 146.204 689.914 146.954 685.038 146.954C679.506 146.954 674.677 146.391 670.551 145.266C666.519 144.235 662.722 142.687 659.159 140.625L656.627 125.716L671.255 123.465L672.52 130.357C674.49 131.201 676.412 131.857 678.287 132.326C680.162 132.701 682.085 132.889 684.054 132.889C687.804 132.889 690.992 132.279 693.618 131.06C696.337 129.841 697.697 128.013 697.697 125.575C697.697 123.981 697.087 122.574 695.868 121.355C694.649 120.043 691.977 119.152 687.851 118.683L679.272 117.277C672.52 116.151 667.176 114.042 663.238 110.947C659.393 107.759 657.471 103.446 657.471 98.0076C657.471 93.8818 658.596 90.2718 660.846 87.1775C663.097 84.0832 666.285 81.6922 670.411 80.0044C674.536 78.3166 679.412 77.4727 685.038 77.4727C689.352 77.4727 693.43 77.9884 697.275 79.0198C701.119 80.0512 704.682 81.7859 707.964 84.2239L710.496 97.8669L697.415 100.117L695.165 91.819Z" fill="black"/>
<path d="M629.977 140.905C626.788 142.687 623.319 144.093 619.568 145.125C615.818 146.25 612.302 146.813 609.02 146.813C599.08 146.813 591.814 144.656 587.219 140.343C582.624 136.029 580.327 129.231 580.327 119.948V94.3502H569.638V80.1445H598.19V117.557C598.19 122.246 599.08 125.668 600.862 127.825C602.644 129.888 605.55 130.919 609.582 130.919C611.458 130.919 613.708 130.591 616.333 129.935C619.053 129.278 621.584 128.481 623.929 127.544V94.3502H613.239V80.1445H641.791V127.403L654.028 131.622L649.105 147.094L629.977 140.905Z" fill="black"/>
<path d="M493.048 143.999V128.246H504.3V76.9091H493.048V61.1562H530.179C539.087 61.1562 545.979 62.3283 550.855 64.6725C555.731 66.9229 559.106 70.1579 560.982 74.3773C562.857 78.5969 563.795 83.5196 563.795 89.1456C563.795 98.5223 561.31 105.508 556.34 110.102C551.464 114.697 544.151 116.994 534.399 116.994H522.444V128.246H529.195V143.999H493.048ZM522.584 101.382H529.336C533.274 101.382 536.368 101.007 538.618 100.257C540.963 99.5068 542.604 98.241 543.541 96.4594C544.573 94.6778 545.088 92.2399 545.088 89.1456C545.088 85.9575 544.479 83.4727 543.26 81.6912C542.041 79.9096 540.259 78.6906 537.915 78.0343C535.571 77.2841 532.711 76.9091 529.336 76.9091H522.584V101.382ZM546.776 143.999L531.023 115.025L547.339 112.072L557.325 128.246H571.952V143.999H546.776Z" fill="black"/>
<path d="M221.498 0C223.639 5.77468e-07 225.78 0.943034 226.945 2.82812L238.468 21.4473L243.89 21.9766L258.81 5.9668C261.835 2.7303 267.943 3.92916 269.494 8.09766L277.14 28.5508L282.41 30.1484L300.14 17.3926C303.741 14.7999 309.493 17.1888 310.205 21.5605L313.72 43.127L318.562 45.7246L338.447 36.6582C342.488 34.8197 347.675 38.2818 347.505 42.7129L346.738 64.5977L350.941 68.0527L372.251 63.0293C376.581 62.0126 380.975 66.4108 379.958 70.7402L374.929 92.0566L378.386 96.25L400.271 95.4863C404.727 95.3169 408.175 100.499 406.32 104.549L397.259 124.438L399.851 129.279L421.414 132.787C425.794 133.507 428.183 139.257 425.582 142.857L412.828 160.572L414.429 165.852L434.876 173.498C439.036 175.049 440.253 181.152 437 184.186L421.003 199.105L421.533 204.527L440.142 216.051C443.917 218.381 443.912 224.62 440.142 226.941L421.529 238.465L421 243.887L436.994 258.811C440.247 261.835 439.032 267.935 434.873 269.494L414.423 277.141L412.822 282.42L425.578 300.139C428.179 303.748 425.798 309.502 421.41 310.205L399.847 313.713L397.255 318.562L406.316 338.443C408.171 342.485 404.681 347.682 400.267 347.504L378.382 346.738L374.933 350.939L379.955 372.262C380.971 376.583 376.577 380.97 372.248 379.953L350.935 374.934L346.738 378.383L347.5 400.271C347.661 404.711 342.484 408.167 338.443 406.32L318.558 397.258L313.716 399.855L310.201 421.41C309.489 425.79 303.735 428.17 300.134 425.586L282.416 412.822L277.136 414.428L269.49 434.873C267.939 439.025 261.831 440.248 258.806 436.994L243.886 420.994L238.464 421.537L226.941 440.15C224.611 443.912 218.372 443.904 216.05 440.15L204.527 421.537L199.101 420.994L184.177 436.994C181.153 440.248 175.044 439.025 173.494 434.873L165.847 414.428L160.568 412.822L142.853 425.586C139.252 428.17 133.494 425.799 132.783 421.41L129.267 399.855L124.425 397.258L104.541 406.32C100.499 408.167 95.3144 404.703 95.4839 400.271L96.2456 378.383L92.0425 374.934L70.73 379.953C66.4006 380.97 62.0043 376.583 63.021 372.262L68.0405 350.939L64.5835 346.738L42.7085 347.504C38.2944 347.682 34.8069 342.485 36.6538 338.443L45.7202 318.562L43.1226 313.713L21.5659 310.205C17.1857 309.502 14.7996 303.748 17.3921 300.139L30.148 282.42L28.5464 277.141L8.09327 269.494C3.94177 267.935 2.72727 261.835 5.97217 258.811L21.9722 243.887L21.4429 238.465L2.82764 226.941C-0.94254 224.62 -0.942553 218.381 2.82764 216.051L21.4429 204.527L21.9722 199.105L5.97217 184.186C2.72727 181.152 3.94177 175.049 8.09327 173.498L28.5464 165.852L30.148 160.572L17.3921 142.857C14.808 139.257 17.1818 133.499 21.562 132.787L43.1226 129.279L45.7202 124.438L36.6538 104.549C34.8153 100.499 38.2943 95.3594 42.7085 95.4863L64.5933 96.25L68.0405 92.0566L63.021 70.7402C62.0043 66.4108 66.4006 62.0211 70.73 63.0293L92.0425 68.0527L96.2456 64.5977L95.4839 42.7129C95.3144 38.2818 100.499 34.8112 104.541 36.6582L124.425 45.7246L129.267 43.127L132.783 21.5605C133.494 17.1888 139.252 14.7914 142.853 17.3926L160.578 30.1484L165.851 28.5508L173.498 8.09766C175.048 3.92916 181.157 2.73031 184.181 5.9668L199.105 21.9766L204.533 21.4473L216.054 2.82812C217.215 0.943025 219.356 0 221.498 0ZM228.666 82.4062C223.87 86.9939 216.278 86.8153 211.695 82.0156L191.421 60.7461C148.183 70.198 102.312 102.678 79.3618 145.953L87.1333 160.185C90.5718 156.458 94.1378 152.84 97.814 149.333C97.814 164.602 97.7485 179.87 97.7485 195.204C107.69 205.86 118.086 216.191 128.222 226.717C124.194 230.355 120.555 234.319 116.981 238.348C105.351 226.652 93.85 214.762 82.4146 202.807C81.5701 202.157 81.7656 200.987 81.7007 200.013V193.147L60.314 202.65C58.1732 222.675 59.6471 244.387 65.0601 262.359C69.0863 274.687 74.69 288.043 81.8189 300.785C81.7584 292.975 81.7084 285.214 81.8306 277.396C91.1217 267.326 100.802 257.579 110.418 247.769C118.215 247.769 126.078 247.769 133.875 247.704C139.397 253.162 144.79 258.684 150.053 264.337C139.462 264.532 128.871 264.142 118.345 264.597C106.179 276.763 94.1396 289.183 82.3501 301.729C88.7473 313.016 96.3464 323.787 105.113 332.889L115.823 330.589C110.347 324.937 104.799 319.323 99.3735 313.588C98.7888 308.195 99.3087 302.672 99.1138 297.214C104.896 290.912 110.939 284.934 116.851 278.762H141.997C148.689 285.194 155.056 291.951 161.423 298.644C147.584 298.709 133.81 298.514 119.97 298.709C119.915 309.036 119.954 319.363 120.007 329.689L129.93 327.56C129.942 320.715 129.949 313.87 129.911 307.025C142.776 307.09 155.706 306.96 168.571 307.025C169.35 307.025 169.935 307.74 170.52 308.194C175.393 313.002 180.006 318.071 184.814 322.944C172.404 322.619 159.929 322.814 147.519 322.879C147.61 328.905 147.601 334.931 147.593 340.964L153.193 367.113C196.009 387.005 245.37 387.242 288.375 367.762L294.984 336.922C295.122 336.275 295.311 335.651 295.543 335.054C295.549 330.974 295.551 326.894 295.531 322.814C283.251 322.879 271.035 322.814 258.755 322.944C263.758 317.616 268.891 312.288 274.024 307.09C287.084 307.155 300.209 307.025 313.333 307.09C313.45 314.242 313.448 321.417 313.429 328.588L323.474 330.748C323.495 320.015 323.585 309.322 323.469 298.578C309.76 298.513 295.985 298.643 282.276 298.578C288.253 291.821 294.686 285.324 301.119 278.892C309.5 278.567 317.947 278.827 326.393 278.762C332.371 284.934 338.543 290.976 344.391 297.214C344.001 302.607 344.651 308.13 344.066 313.458C338.35 319.559 332.309 325.335 326.572 331.414L337.083 333.674C342.296 328.423 347.144 322.821 351.591 316.908C354.789 312.02 357.956 306.829 360.983 301.372C349.872 289.998 338.875 278.568 327.757 267.261C326.718 266.286 325.873 264.987 324.574 264.467C314.308 264.467 303.977 264.662 293.711 264.402C298.325 259.204 303.132 254.201 308.005 249.263C308.655 248.678 309.175 247.769 310.15 247.834C317.427 247.704 324.704 247.834 331.981 247.704C333.28 247.509 333.996 248.744 334.84 249.523C343.742 259.01 353.228 267.846 361.934 277.527C361.876 284.908 361.767 292.341 361.884 299.733C372.599 280.041 381.376 256.976 383.144 232.102C383.846 222.728 383.73 213.312 382.8 203.959L361.962 194.704C361.933 197.167 361.885 199.629 361.804 202.092C350.304 214.372 337.958 226.002 326.523 238.412C322.69 234.644 319.116 230.616 315.283 226.782C324.899 216.256 335.1 206.25 344.911 195.854C345.56 195.27 345.561 194.36 345.561 193.58C345.496 178.831 345.496 164.082 345.561 149.333C348.339 152.348 351.274 155.222 354.176 158.139L362.322 139.742C338.735 98.3768 298.154 69.4743 251.351 60.707L228.666 82.4062ZM318.718 344.383C311.299 344.166 305.167 350.122 305.167 357.545C305.203 364.791 311.087 370.646 318.333 370.646C325.58 370.646 331.464 364.791 331.5 357.545C331.5 350.423 325.837 344.591 318.718 344.383ZM123.636 343.77C116.218 343.553 110.086 349.508 110.085 356.93C110.121 364.176 116.005 370.031 123.251 370.031C130.498 370.031 136.381 364.176 136.417 356.93C136.417 349.808 130.754 343.978 123.636 343.77ZM221.459 204.69C228.412 211.578 235.234 218.595 241.862 225.808C238.028 229.706 234.129 233.539 230.231 237.438C227.307 234.384 224.253 231.525 221.33 228.472C205.606 244.715 189.622 260.699 173.704 276.747C179.226 282.66 185.074 288.378 190.792 294.096C192.611 292.082 194.82 290.261 196.25 287.987C193.001 284.284 189.363 280.84 186.049 277.137C197.68 264.792 209.7 252.772 221.395 240.557C233.61 252.642 245.631 264.857 257.651 277.137C254.077 280.775 250.309 284.219 246.93 288.053C248.684 290.262 250.959 292.082 252.908 294.096C258.496 288.443 263.953 282.66 269.476 276.942C259.08 265.832 248.035 255.306 237.574 244.325C241.082 240.297 244.981 236.658 248.814 232.89C263.043 247.379 277.533 261.673 291.502 276.487C278.443 289.807 265.317 303.062 252.387 316.512C243.876 307.74 235.364 299.033 226.917 290.262C230.296 286.038 234.585 282.595 237.963 278.307C232.311 272.979 226.853 267.39 221.395 261.933C216.002 267.325 210.674 272.848 205.151 278.111C208.789 282.335 213.013 286.039 216.652 290.327C208.01 298.839 199.434 307.48 191.182 316.382C177.927 303.257 164.932 289.872 152.002 276.487C160.839 266.806 170.26 257.709 179.292 248.158C193.456 233.864 207.1 218.985 221.459 204.69ZM221.525 297.604C227.632 303.191 233.22 309.299 238.938 315.342C227.503 315.472 216.002 315.342 204.567 315.342C210.025 309.299 215.807 303.516 221.525 297.604ZM221.395 268.886C224.059 271.225 226.333 273.954 228.737 276.553C226.333 279.022 223.864 281.426 221.72 284.024C219.056 281.62 216.587 279.086 214.248 276.422C216.522 273.823 218.926 271.355 221.395 268.886ZM143.425 222.624C151.612 231.071 159.865 239.452 167.921 248.094C164.218 251.862 160.384 255.501 156.94 259.529C150.897 253.162 144.921 246.729 138.683 240.687C134.59 240.167 130.431 240.687 126.337 240.427C131.795 234.319 137.578 228.212 143.425 222.624ZM299.559 222.494C305.602 228.277 311.384 234.384 317.102 240.427C313.139 240.427 309.175 240.492 305.147 240.557C304.302 240.492 303.847 241.336 303.328 241.791C297.74 247.639 292.022 253.356 286.564 259.334C282.861 255.566 279.092 251.732 275.454 247.834C283.315 239.257 291.567 230.941 299.559 222.494ZM180.526 216.516C183.71 219.634 186.634 222.884 189.752 226.067C184.62 231.07 179.616 236.138 174.678 241.336C171.69 238.282 168.766 235.164 165.842 232.045C170.65 226.782 175.523 221.584 180.526 216.516ZM262.914 216.581C267.787 221.779 272.855 226.847 277.663 232.11C274.544 234.969 271.62 238.088 268.761 241.271C263.433 236.593 258.755 231.2 253.752 226.197C256.741 222.949 259.73 219.7 262.914 216.581ZM234.584 159.079C237.963 153.816 246.54 153.556 250.374 158.494C254.142 162.717 252.777 170.124 247.709 172.658C247.515 176.362 247.58 180.065 247.58 183.769C254.142 183.574 260.705 183.704 267.267 183.574C276.428 193.905 285.265 204.561 294.231 215.087C290.592 218.595 287.084 222.234 283.64 226.067C274.934 217.491 267.006 208.2 258.105 199.883C254.597 199.363 250.893 199.948 247.32 199.753C250.503 203.131 253.558 206.51 256.806 209.823C253.687 212.812 250.633 215.866 247.644 219.05C239.003 210.408 230.621 201.507 221.915 192.995C221.395 192.411 220.94 193.45 220.485 193.71C212.363 202.286 203.722 210.343 195.795 219.05C192.807 215.866 189.752 212.877 186.763 209.693C189.622 206.315 192.872 203.261 195.795 199.947C192.222 199.947 188.713 199.883 185.139 199.883C176.498 208.459 167.986 217.166 159.669 226.002C156.356 222.169 152.652 218.66 149.208 215.021C158.305 204.821 166.816 194.1 175.913 183.899C182.475 183.834 188.972 183.769 195.535 183.834C195.6 180.325 195.73 176.752 195.535 173.243C191.247 170.449 189.297 164.342 192.091 159.858C194.885 154.401 203.008 153.556 207.361 157.52C212.753 161.938 210.868 171.294 204.306 173.438C204.176 176.882 204.176 180.326 204.176 183.834H204.501C216.067 183.639 227.568 183.639 239.133 183.769C239.263 180.39 239.328 177.012 239.133 173.568C233.416 171.619 230.946 163.952 234.584 159.079ZM150.898 93C163.243 93.1299 175.588 93.0005 187.868 93.0654C181.37 98.913 175.523 105.475 169.35 111.647C164.672 111.712 159.994 111.713 155.251 111.713C155.381 117.3 155.251 122.888 155.381 128.476C169.351 128.476 183.255 128.281 197.224 128.541C191.507 133.999 186.049 139.716 180.591 145.499H123.414L123.479 154.206H140.632C140.697 160.573 140.632 166.876 140.632 173.243C134.915 173.243 129.131 173.244 123.414 173.309C123.414 176.037 123.349 178.766 123.414 181.56C129.131 181.69 134.784 181.495 140.501 181.689C140.826 184.223 139.527 187.408 141.801 189.292C145.31 192.931 148.819 196.569 152.262 200.272C146.09 206.77 139.722 213.137 133.679 219.765C124.908 210.928 116.267 201.896 107.56 192.995C106.456 192.15 106.715 190.721 106.65 189.486C106.65 172.333 106.65 155.245 106.715 138.222C121.334 123.083 136.084 108.009 150.898 93ZM255.832 93C267.917 93.065 280.067 93.0654 292.152 93.0654C292.932 93.0005 293.386 93.7801 293.906 94.1699C308.005 108.984 322.495 123.343 336.594 138.092C336.399 156.09 336.529 174.153 336.464 192.15C327.498 201.247 318.337 210.084 309.76 219.57C303.523 213.268 297.154 207.03 291.112 200.468C294.036 195.79 298.974 192.216 302.417 187.732C302.677 185.653 302.483 183.574 302.613 181.43C308.33 181.56 314.048 181.56 319.831 181.43C319.831 178.701 319.766 175.972 319.766 173.179C314.113 173.179 308.395 173.178 302.743 173.243C302.483 166.876 302.613 160.573 302.613 154.206C308.33 154.141 314.113 154.271 319.831 154.141V145.629L262.978 145.435L246.215 128.541C260.12 128.281 274.024 128.476 287.864 128.411C287.864 122.823 287.733 117.301 287.798 111.713C283.25 111.648 278.637 111.712 274.089 111.777C268.047 105.475 261.874 99.3024 255.832 93ZM378.242 158.85C370.823 158.633 364.691 164.588 364.691 172.01C364.727 179.256 370.611 185.111 377.857 185.111C385.103 185.111 390.987 179.256 391.023 172.01C391.023 164.889 385.36 159.058 378.242 158.85ZM64.1128 158.236C56.6939 158.02 50.5622 163.975 50.562 171.396C50.5977 178.643 56.4818 184.498 63.728 184.498C70.9741 184.498 76.858 178.643 76.894 171.396C76.8938 164.275 71.2311 158.445 64.1128 158.236ZM173.054 154.011C165.257 161.353 157.85 169.15 150.443 176.882C150.118 169.345 150.314 161.743 150.249 154.141C157.85 154.076 165.452 154.011 173.054 154.011ZM270.385 154.011C277.857 154.336 285.395 153.946 292.867 154.141C292.737 161.613 292.932 169.15 292.737 176.622C285.265 169.15 277.792 161.548 270.385 154.011ZM221.179 39.0273C213.76 38.8105 207.628 44.7667 207.628 52.1895C207.664 59.4354 213.548 65.291 220.794 65.291C228.041 65.291 233.924 59.4355 233.96 52.1895C233.961 45.0673 228.298 39.2355 221.179 39.0273Z" fill="url(#paint0_linear_3908_3863)"/>
<defs>
<linearGradient id="paint0_linear_3908_3863" x1="221.486" y1="0" x2="221.486" y2="442.969" gradientUnits="userSpaceOnUse">
<stop stop-color="#FFAEA4"/>
<stop offset="1" stop-color="#E43A25"/>
</linearGradient>
</defs>
</svg>
