<svg xmlns="http://www.w3.org/2000/svg" role="img" viewBox="13.42 6.42 1174.16 630.16"><title>Rust-Global-white.svg</title><style>svg {enable-background:new 0 0 1219.8 645.1}</style><style>.st1{fill:#fff}</style><path fill="#b2b2b2" d="M433.6 115.5c-5.2 9.3-11.2 25.2-3.8 41.3 11.4 25 4.8 24.5-16.5 32.9s-9.8-8.4-32.9 0c0 0 2.7 26.7 0 32.9s-3.6 36.9-16.5 16.5-29-27.1-29-27.1-8 1-8 24.4c0 17-31.7 35.9-28.9 52s1.4 17.7 10.9 24.7c3.5 2.5 5.3 13.5 5.5 24.7.4 17.1-4.7 7.8 16.5 16.5s18.1 20.4 32.9 32.9 24.4-1 32.9 32.9 20.5 60.8 32.9 49.4 24.8-16.8 32.9-49.4 6.3-4.7 16.5-49.4 20.3-46.4 20.3-46.4 22.5-1.8 25.6 12.7c3 13.6 15.9 10.8 19.8 8.3 4.6-3 11.9-10.8 17-16.6.1-2.3.2-4.5.2-6.8.1-87.6-49.7-167.7-128.3-206.4zm-201.4 57.8c20.2-8.8 44.1-14 65.8-16.5s-2.3-25.2 0-32.9c1.4-4.6 13.1-20.1 22.4-31.8-22.4 1.1-44.5 5.5-65.7 13-.3 11.3-3.6 22.3-9.5 31.9-1.7 2.7-25.6 41.7-13 36.3zm-94.8 132.2c.4-7.4 13-18.3 12.5-17s16.9-38.1 16.5-49.4-6.7-26.6 0-49.4c3.3-11.7 6-23.6 8-35.6-46.5 43.4-72.8 104.2-72.8 167.7 0 5.8.3 11.5.7 17.2 12.3-8.2 34.2-19.7 35.1-33.5zM267 542.8c6.4-63.2-50-79.2-51.2-89.7-1.7-15.2-33.6-32.8-49.4-32.9s-5.7-37.8-16.5-49.4c-6.7-7.3-25.8 6.8-38.5 17.5 22.5 74.4 81 132.5 155.6 154.5z"/><path d="M627.7 321.9c0-13.6-31.3-24.8-33.1-37.8-1.9-13.4 24.9-32.9 21.2-45.6-3.8-12.9-36.9-14.8-42.5-26.9s14.6-38.5 7.4-49.7-39.6-3.7-48.3-13.8 3.3-41-6.8-49.8-39 7.5-50.3.3-8.3-40.3-20.6-45.9c-12.1-5.5-35.2 18.3-48.1 14.5-12.7-3.7-19.3-36.3-32.7-38.2-13-1.9-28.6 27.5-42.1 27.5s-29-29.3-42.1-27.5c-13.4 1.9-20 34.4-32.7 38.2-12.9 3.8-36.1-20-48.2-14.5s-9.4 38.7-20.5 45.9-40.2-9-50.3-.3 1.9 39.7-6.8 49.8-41.1 2.6-48.3 13.8 13 37.5 7.4 49.7-38.7 14-42.5 26.9C44 251.3 70.9 270.7 69 284.1c-1.9 13-33.1 24.2-33.1 37.8s31.3 24.8 33.1 37.8c1.9 13.4-24.9 32.9-21.2 45.6 3.8 12.9 36.9 14.8 42.5 26.9 5.6 12.2-14.6 38.5-7.4 49.7s39.6 3.8 48.3 13.8-3.3 41 6.8 49.8 39-7.5 50.3-.3 8.3 40.3 20.5 45.9 35.2-18.3 48.2-14.5c12.7 3.7 19.3 36.2 32.7 38.2 13.1 1.9 28.5-27.5 42.1-27.5s29.1 29.3 42.1 27.5c13.4-1.9 20-34.4 32.7-38.2 12.9-3.8 36.1 20 48.1 14.5 12.2-5.6 9.4-38.7 20.6-45.9s40.2 9 50.3.3-1.9-39.7 6.8-49.8 41.1-2.6 48.3-13.8-13-37.5-7.4-49.7c5.5-12.1 38.7-14 42.5-26.9 3.7-12.7-23.1-32.2-21.2-45.6 1.8-13 33.1-24.2 33.1-37.8zm-93.5-65.7c2.8 8.6-1.9 17.8-10.5 20.6-8.6 2.8-17.8-1.9-20.6-10.5-2.8-8.6 1.9-17.8 10.5-20.6 8.6-2.8 17.8 1.9 20.6 10.5zM331.8 109.1c9 0 16.4 7.3 16.4 16.4 0 9-7.3 16.4-16.4 16.4-9 0-16.4-7.3-16.4-16.4 0-9.1 7.3-16.4 16.4-16.4zM129.4 256.2c2.8-8.6 12-13.3 20.6-10.5s13.3 12 10.5 20.6-12 13.3-20.6 10.5c-8.6-2.8-13.3-12-10.5-20.6zm100.1 234.3c-5.3 7.3-15.5 8.9-22.8 3.6s-8.9-15.5-3.6-22.8c5.3-7.3 15.5-8.9 22.8-3.6 7.3 5.3 8.9 15.5 3.6 22.8zm227.4 3.6c-7.3 5.3-17.5 3.7-22.9-3.6-5.3-7.3-3.7-17.5 3.6-22.9 7.3-5.3 17.5-3.7 22.9 3.6 5.3 7.4 3.7 17.6-3.6 22.9zm104.5-155.2c-2.7 38-14.9 74.8-35.5 106.9-5.7 8.9-16.1 13.6-26.6 12l-47.3-7.5c-16.8-2.7-32.6 8.8-35.3 25.6l-7.5 47.3c-1.6 10.4-9.3 18.9-19.5 21.6-38 9.8-77.9 9.8-115.9 0-10.2-2.7-17.8-11.1-19.5-21.6l-7.5-47.3c-2.7-16.9-18.5-28.3-35.3-25.7l-47.3 7.5c-10.5 1.6-20.9-3.1-26.6-12-20.5-32.1-32.7-68.8-35.5-106.8-.7-10.2 4.4-19.9 13.3-25l43.7-25.2c15.2-7.7 21.3-26.3 13.5-41.5l-21.7-42.6c-4.8-9.4-3.6-20.7 3.1-28.9 24.9-30.3 57.1-53.7 93.6-68.1 9.8-3.8 21-1.5 28.5 6l33.9 33.9c12.1 12.1 31.6 12.1 43.7 0l33.9-33.9c7.5-7.5 18.6-9.8 28.5-6 36.5 14.4 68.7 37.8 93.6 68.1 6.7 8.2 7.9 19.5 3.1 28.9L491 247.2c-7.7 15.2-1.7 33.8 13.5 41.5l43.6 25.2c8.9 5.1 14 14.9 13.3 25z" class="st1"/><path d="M326.2 200.7l-1.2 6.4-2.1 11.4-.6 3.2-11.8 65.3-1.7 9.3-.4 2.2-.1.4-.5 2.9c.6-.7 1.2-1.4 1.9-2.1.6-.6 1.3-1.3 2-1.8l.4-2.3.4-2.2.8-4.4 12.3-67.6.6-3.2 2.1-11.3.3-1.9v85.8c1-.1 2.1-.2 3.2-.2V170.2l-5.6 30.5z" class="st1"/><path d="M355.8 301.9c-.6-.8-1.3-1.4-1.9-2.1-.7-.7-1.4-1.3-2.1-1.9l-.4-.1.1-.1c-1.3-1.1-2.7-2-4.2-2.9-1-.6-2.1-1.1-3.2-1.6-3.9-1.7-8.1-2.6-12.4-2.6V170.2l5.6 30.5 1.2 6.4 2.1 11.4.6 3.2 11.9 65.3.6 3.4.8 4.3.3 1.5.4 2.2.1.4.5 3.1zm-46.1 42.2c-.6-.6-1.3-1.3-1.8-2l-2.3-.4-2.2-.4-4.4-.8-67.5-12.3-3.2-.6-11.3-2.1-1.9-.3h85.8c-.1-1-.2-2.1-.2-3.2H180l30.5 5.6 6.4 1.2 11.4 2.1 3.2.6 65.3 11.9 9.3 1.7 2.2.4.5.1 2.9.5-2-2zm2-46.2c-.8.6-1.4 1.3-2.1 1.9-.7.7-1.3 1.4-1.9 2.1l-.1.4-.1-.2c-1.8 2.2-3.4 4.7-4.5 7.4-1.7 3.9-2.6 8.1-2.6 12.4H180l30.5-5.6 6.4-1.2 11.4-2.1 3.2-.6 65.3-11.9 3.4-.6 4.3-.8 1.5-.3 2.2-.4.4-.1 3.1-.4zm42.2 46.2c-.7.7-1.3 1.3-2 1.8v.1l-.4 2.3-.4 2.2-.8 4.4-12.3 67.5-.6 3.2-2.1 11.3-.3 1.9V353c-1 .1-2.1.2-3.2.2v120.5l5.6-30.5 1.2-6.4 2.1-11.4.6-3.2 11.9-65.3 1.7-9.3.4-2.2.1-.4.5-2.9c-.7.6-1.3 1.3-2 2z" class="st1"/><path d="M331.8 353.2v120.5l-5.6-30.5-1.2-6.4-2.1-11.4-.6-3.2-11.9-65.3-.6-3.4-.8-4.3-.3-1.5-.4-2.2-.1-.4-.5-2.9v-.1s0 .1.1.1c.6.7 1.2 1.4 1.8 2s1.4 1.3 2.1 1.9l.4.1-.1.1c1.3 1.1 2.7 2.1 4.2 2.9 1 .6 2.1 1.1 3.2 1.6 3.9 1.5 8.1 2.4 12.4 2.4zM453 316.4l-6.4-1.2-11.4-2.1-3.2-.6-65.3-11.9-9.3-1.7-2.2-.4-.4-.1-2.9-.5c.7.6 1.4 1.2 2.1 1.9s1.3 1.3 1.8 2h.1l2.3.4 2.2.4 4.4.8 67.5 12.3 3.2.6 11.3 2.1 1.9.3h-85.8c.1 1 .2 2.1.2 3.2h120.5l-30.6-5.5zm30.6 5.5l-30.5 5.6-6.4 1.2-11.4 2.1-3.2.6-65.3 11.9-3.4.6-4.3.8-1.5.3-2.2.4-.4.1-2.9.5h-.1s.1 0 .1-.1c.7-.6 1.4-1.2 2-1.8s1.3-1.4 1.9-2.1c.1-.1.2-.2.2-.3 1.1-1.3 2.1-2.7 2.9-4.2.6-1 1.1-2.1 1.6-3.2 1.7-3.9 2.6-8.1 2.6-12.4h120.3zm-217.2-65.4l27 39.1 2.5-.4 1-.2-8-11.6 11.1 11.1 3.7-.7-37.3-37.3z" class="st1"/><path d="M305.5 283.6l-.5 2.4-1.4 7.8-37.2-37.3zm-.5 74.3l-.2-1-11.6 8 11.1-11.1-.7-3.7-37.2 37.2 39.1-27-.5-2.4z" class="st1"/><path d="M303.6 350.1l-37.2 37.2 27-39.1 2.5.5zm66.5-1.9l-2.5.4-.9.2 8 11.6-11.1-11.1-3.8.7 37.2 37.2-26.9-39z" class="st1"/><path d="M397.2 387.3l-39.1-27 .4-2.5 1.4-7.7zm-39.1-103.7l.5 2.5.2.9 11.6-8-11.1 11.1.7 3.7 37.3-37.3-39.2 27.1z" class="st1"/><path d="M397.2 256.5l-27.1 39.2-2.4-.5-7.8-1.4zm-32.7 62.3c-.6-6-2.8-11.7-6.4-16.5-.9-1.2-1.8-2.3-2.8-3.3l-.2-.3-.3-.3c-.7-.7-1.4-1.3-2.1-1.9-1.2-1-2.5-1.9-3.9-2.8-1-.6-2-1.2-3.1-1.7-4.4-2-9.1-3.1-13.9-3.1-1.1 0-2.1 0-3.2.2-6 .6-11.7 2.8-16.5 6.4-1.2.9-2.3 1.8-3.3 2.8l-.3.3-.3.3c-.7.7-1.3 1.3-1.9 2.1-1 1.2-1.9 2.5-2.8 3.9-.6 1-1.2 2.1-1.7 3.1-2 4.3-3.1 9.1-3.1 13.9 0 1.1 0 2.1.2 3.2.6 6 2.8 11.7 6.4 16.5.9 1.2 1.8 2.3 2.8 3.3l.3.3.3.3c.7.6 1.3 1.3 2.1 1.9 1.2 1 2.5 1.9 3.9 2.8 1 .6 2.1 1.2 3.1 1.7 4.3 2 9.1 3.1 13.9 3.1 1.1 0 2.1-.1 3.2-.2 3.7-.3 7.4-1.3 10.8-2.9 3.4-1.6 6.4-3.7 9.1-6.3l.3-.3.2-.3c.7-.7 1.3-1.4 1.9-2.1 1-1.2 1.9-2.5 2.8-3.9.6-1 1.2-2 1.7-3.1 2-4.3 3.1-9.1 3.1-13.9-.1-1.1-.2-2.2-.3-3.2zm-4 15.5c-.5 1.1-1 2.2-1.6 3.2-.8 1.5-1.8 2.9-2.9 4.2-.1.1-.1.2-.2.3-.6.7-1.2 1.4-1.9 2.1s-1.3 1.3-2 1.8c0 0 0 .1-.1.1-4.8 4-10.7 6.5-16.9 7.1-1 .1-2.1.2-3.2.2-4.3 0-8.5-.9-12.4-2.6-1.1-.5-2.2-1-3.2-1.6-1.5-.8-2.9-1.8-4.2-2.9l.1-.1-.4-.1c-.7-.6-1.4-1.2-2.1-1.9s-1.3-1.3-1.8-2l-.1-.1c-1.9-2.3-3.5-4.9-4.7-7.7-1.3-2.9-2.1-6-2.4-9.2-.1-1-.2-2.1-.2-3.2 0-4.3.9-8.5 2.6-12.4 1.1-2.7 2.7-5.2 4.5-7.4l.1.2.1-.4c.6-.7 1.2-1.4 1.9-2.1.6-.6 1.3-1.3 2-1.8l.1-.1c2.3-1.9 4.9-3.5 7.7-4.7 2.9-1.3 6-2.1 9.2-2.4 1-.1 2.1-.2 3.2-.2 4.3 0 8.5.9 12.4 2.6 1.1.5 2.2 1 3.2 1.6 1.5.8 2.9 1.8 4.2 2.9l-.1.1.4.1c.7.6 1.4 1.2 2.1 1.9.6.6 1.3 1.3 1.8 2l.1.1c4 4.8 6.5 10.7 7.1 16.9.1 1 .2 2.1.2 3.2 0 4.2-.9 8.4-2.6 12.3z" class="st1"/><path d="M366.1 318.8c-.4-4.3-1.6-8.4-3.5-12.2-.7-1.3-1.4-2.6-2.3-3.9-.9-1.3-1.9-2.6-2.9-3.7-.4-.5-.8-.9-1.3-1.4s-.9-.9-1.4-1.3c-.3-.3-.6-.6-1-.8-1.1-1-2.3-1.8-3.6-2.6-1-.6-2-1.2-3-1.7-4.8-2.4-10.1-3.6-15.4-3.6-1.1 0-2.1.1-3.2.2-4.3.4-8.4 1.6-12.2 3.5-1.3.7-2.6 1.4-3.9 2.3-1.3.9-2.6 1.9-3.7 2.9-.5.4-.9.8-1.4 1.3s-.9.9-1.3 1.4-.6.6-.8 1c-.9 1.1-1.8 2.3-2.6 3.6-.6 1-1.2 2-1.7 3-2.4 4.8-3.6 10.1-3.6 15.4 0 1.1 0 2.1.2 3.2.4 4.3 1.6 8.4 3.5 12.2.7 1.3 1.4 2.6 2.3 3.9.9 1.3 1.9 2.6 2.9 3.7.4.5.8.9 1.3 1.4s.9.9 1.4 1.3.6.6 1 .8c1.1.9 2.3 1.8 3.6 2.6 1 .6 2 1.2 3 1.7 4.8 2.4 10.1 3.6 15.4 3.6 1.1 0 2.1 0 3.2-.2 4.3-.4 8.4-1.5 12.2-3.5 1.3-.7 2.6-1.4 3.9-2.3 1.3-.9 2.6-1.9 3.7-2.9.5-.4.9-.8 1.4-1.3l1.3-1.3c.4-.4.6-.7.8-1 1.7-2 3.2-4.3 4.3-6.6 2.4-4.8 3.6-10.1 3.6-15.4-.1-1.2-.1-2.3-.2-3.3zm-10.3 23.1c-.6.7-1.2 1.4-1.9 2.1s-1.3 1.3-2 1.8c0 0 0 .1-.1.1-4.8 4-10.7 6.5-16.9 7.1-1 .1-2.1.2-3.2.2-4.3 0-8.5-.9-12.4-2.6-1.1-.5-2.2-1-3.2-1.6-1.5-.8-2.9-1.8-4.2-2.9l-.2-.2c-.7-.6-1.4-1.2-2.1-1.9s-1.3-1.3-1.8-2l-.1-.1c-1.9-2.3-3.5-4.9-4.7-7.7-1.3-2.9-2.1-6-2.4-9.2-.1-1-.2-2.1-.2-3.2 0-4.3.9-8.5 2.6-12.4 1.1-2.7 2.7-5.2 4.5-7.4l.2-.3c.6-.7 1.2-1.4 1.9-2.1.6-.6 1.3-1.3 2-1.8l.1-.1c2.3-1.9 4.9-3.5 7.7-4.7 2.9-1.3 6-2.1 9.2-2.4 1-.1 2.1-.2 3.2-.2 4.3 0 8.5.9 12.4 2.6 1.1.5 2.2 1 3.2 1.6 1.5.8 2.9 1.8 4.2 2.9.1.1.2.1.3.2.7.6 1.4 1.2 2.1 1.9.6.6 1.3 1.3 1.8 2l.1.1c4 4.8 6.5 10.7 7.1 16.9.1 1 .2 2.1.2 3.2 0 4.3-.9 8.5-2.6 12.4-.5 1.1-1 2.2-1.6 3.2-.8 1.5-1.8 2.9-2.9 4.2-.1.2-.2.3-.3.3zm79.8-23.1h-3.2c0 1 .1 2.1.1 3.2 0 3.2-.1 6.3-.4 9.4-4.5 48.2-42.7 86.3-90.8 90.9-1.1.1-2.2.2-3.2.2l-.6 3.2c1.1 0 2.2-.1 3.2-.2 50.4-4.3 90.4-44.3 94.7-94.7.2-2.9.4-5.8.4-8.8-.2-1.1-.2-2.2-.2-3.2zM331.8 422.6c-3.2 0-6.3-.1-9.4-.4-48.2-4.5-86.3-42.7-90.9-90.9-.1-1.1-.2-2.1-.2-3.2l-3.2-.6c0 1.1.1 2.2.2 3.2 4.3 50.4 44.3 90.4 94.7 94.6 2.9.3 5.8.4 8.8.4h3.2v-3.2c-1.1.1-2.2.1-3.2.1zm103.4-109.5c-4.3-50.4-44.3-90.4-94.7-94.7-2.9-.2-5.8-.4-8.8-.4h-3.2v3.2c1.1 0 2.1-.1 3.2-.1 3.2 0 6.3.1 9.4.4 48.2 4.5 86.3 42.7 90.8 90.8.1 1.1.2 2.2.2 3.2l3.2.6c.1-.8 0-1.9-.1-3zm-206.9 0c-.2 2.9-.4 5.8-.4 8.8v3.2h3.2v-3.2c0-3.2.1-6.3.4-9.4 4.5-48.2 42.7-86.3 90.9-90.8 1.1-.1 2.2-.2 3.2-.2l.6-3.2c-1.1.1-2.2.1-3.2.2-50.4 4.3-90.4 44.2-94.7 94.6z" class="st1"/><path d="M313.4 438.9l-.6-3.5c-48.4-8.1-86.4-46.1-94.6-94.5l-3.5-.6-3.1-.6c7.9 52.9 49.4 94.4 102.3 102.3l-.5-3.1zm135.4-98.6l-3.5.6c-8.1 48.5-46.1 86.4-94.5 94.6l-.6 3.5-.6 3.1c52.9-7.8 94.5-49.4 102.3-102.3l-3.1.5zm-237.1-36.2l3.1-.6 3.5-.6c8.1-48.5 46.1-86.4 94.6-94.6l.6-3.5.6-3.1c-53 8-94.6 49.5-102.4 102.4zm137.9-102.2l.6 3.1.6 3.5c48.4 8.2 86.4 46.1 94.5 94.5l3.5.6 3.1.6c-7.9-53-49.4-94.5-102.3-102.3zm315.6-94.2H720c19 0 32.9 4.4 41.7 13.3s13.1 22.5 13.1 40.8v14.5c0 24.4-8.1 39.9-24.2 46.4v.7c9 2.7 15.3 8.2 19 16.5 3.7 8.3 5.6 19.4 5.6 33.3v41.3c-.1 5.4.2 10.9.7 16.3.5 4.2 1.6 8.4 3.4 12.3h-37.6c-1.3-3.5-2.2-7.1-2.7-10.8-.6-6-.8-12.1-.7-18.2v-43c0-10.7-1.7-18.2-5.2-22.5-3.5-4.3-9.5-6.4-18-6.4h-12.8V343h-37l-.1-235.3zm50.5 100.8c7.4 0 12.9-1.9 16.6-5.7 3.7-3.8 5.5-10.2 5.5-19.2v-18.2c0-8.5-1.5-14.7-4.5-18.5-3-3.8-7.8-5.7-14.3-5.7h-16.8v67.2l13.5.1zM813.5 331c-9.4-10.2-14.1-24.8-14.1-43.9V107.7h37v182.1c0 8.1 1.6 13.9 4.9 17.5 3.2 3.6 7.9 5.4 14 5.4 6 0 10.7-1.8 13.9-5.4 3.2-3.6 4.9-9.4 4.9-17.5V107.7h35.6v179.5c0 19-4.7 33.7-14.1 43.9-9.4 10.2-23.1 15.3-41 15.3-18-.1-31.7-5.2-41.1-15.4zm129.7 0c-9.2-10.2-13.8-24.8-13.8-43.9v-13.4h35v16.1c0 15.2 6.4 22.9 19.2 22.9 6.3 0 11-1.9 14.3-5.5s4.9-9.7 4.9-18c0-9.9-2.2-18.5-6.7-26s-12.8-16.5-24.9-27c-15.2-13.4-25.9-25.6-31.9-36.5-6-10.9-9.1-23.1-9.1-36.8 0-18.6 4.7-33 14.1-43.2s23.1-15.3 41-15.3c17.7 0 31.1 5.1 40.2 15.3s13.6 24.8 13.6 43.9v9.7h-34.9v-12.1c0-8.1-1.6-13.9-4.7-17.6-3.1-3.7-7.8-5.6-13.8-5.6-12.3 0-18.5 7.5-18.5 22.5 0 8.4 2.4 16.7 6.9 23.9 4.6 7.4 12.9 16.4 25 26.9 15.5 13.4 26.1 25.6 31.9 36.6s8.7 23.9 8.7 38.7c0 19.3-4.8 34.1-14.3 44.4-9.5 10.3-23.4 15.5-41.5 15.4-18-.1-31.5-5.2-40.7-15.4zm146.5-189.7H1051v-33.6h114.3v33.6h-38.7v201.6h-37l.1-201.6zm-415.1 388c-6.3-6.8-9.4-16.5-9.4-29.2v-82.3c0-12.7 3.1-22.4 9.4-29.2s15.4-10.2 27.3-10.2 21 3.4 27.3 10.2 9.4 16.5 9.4 29.2v13.4h-23.3v-15c0-10.3-4.2-15.4-12.8-15.4s-12.8 5.1-12.8 15.4v85.7c0 10.2 4.3 15.2 12.8 15.2s12.8-5.1 12.8-15.2v-30.7H703v-22.3h35.6v51.2c0 12.7-3.1 22.4-9.4 29.2-6.3 6.8-15.4 10.2-27.3 10.2s-21-3.4-27.3-10.2zm79.9-148.6h24.6V515h40.5v22.4h-65.1V380.7zm83.9 148.5c-6.4-6.9-9.6-16.6-9.6-29.1v-82.3c0-12.5 3.2-22.2 9.6-29.1 6.4-6.9 15.7-10.3 27.8-10.3 12.1 0 21.3 3.4 27.8 10.3 6.4 6.9 9.6 16.6 9.6 29.1v82.3c0 12.5-3.2 22.2-9.6 29.1s-15.7 10.3-27.8 10.3c-12.1 0-21.4-3.4-27.8-10.3zm40.5-27.5v-85.5c0-10.3-4.2-15.4-12.8-15.4s-12.8 5.1-12.8 15.4v85.5c0 10.3 4.3 15.4 12.8 15.4 8.6.1 12.8-5.1 12.8-15.4zm41.2-121h37.2c12.7 0 21.9 2.9 27.7 8.8s8.7 15 8.7 27.2v6.3c0 8.1-1.3 14.6-3.9 19.7-2.5 5-6.8 8.9-12 11v.4c12.2 4.2 18.3 15.1 18.3 32.7v13.4c0 12.1-3.2 21.3-9.5 27.6-6.3 6.3-15.6 9.5-27.9 9.5H920V380.7zm34.2 63.7c4.9 0 8.6-1.3 11.1-3.8s3.7-6.8 3.7-12.8v-8.7c0-5.7-1-9.8-3-12.3s-5.2-3.8-9.5-3.8h-11.9v41.4h9.6zm4.5 70.5c4.3 0 7.5-1.2 9.6-3.5s3.1-6.3 3.1-12v-13.7c0-7.2-1.2-12.1-3.7-14.9s-6.5-4.1-12.2-4.1h-11v48.2h14.2zm70.7-134.2h33.3l25.5 156.6h-24.6l-4.5-31.1v.4h-28l-4.5 30.7H1004l25.5-156.6zm26.9 104.7l-11-77.4h-.4l-10.7 77.4h22.1zm43.8-104.7h24.6V515h40.5v22.4h-65.1V380.7z" class="st1"/></svg>